<svg xmlns="http://www.w3.org/2000/svg" viewBox="0 0 68.88 54.17"><title>coach killer</title><g id="Слой_2" data-name="Слой 2"><g id="Слой_1-2" data-name="Слой 1"><path d="M41.79,0A27.09,27.09,0,1,0,68.88,27.08,27.09,27.09,0,0,0,41.79,0Zm0,48.5A21.43,21.43,0,0,1,21,32c1.1-.68,3.86-2.54,4.16-4.14.38-2-3.25-1.5-3.87-3.87s3.87-4,3.87-6.91a2.28,2.28,0,0,0-1-2,21.41,21.41,0,0,1,17.7-9.38,21.2,21.2,0,0,1,7.66,1.44c-.62,1.67-.73,3.52,1.56,4,2,.39,4.15.71,6,.94a21.41,21.41,0,0,1,5.85,11.24c-1,1.06-1.9,2.22-1.84,3.07a10.1,10.1,0,0,0,1.93,4A21.44,21.44,0,0,1,41.79,48.5Z"/><path d="M41.79,34.66a9.7,9.7,0,0,1-9-6.24l-5.42,1.69a15.36,15.36,0,0,0,28.86.24l-5.42-1.69A9.72,9.72,0,0,1,41.79,34.66Z"/><path d="M34.11,21.75a3,3,0,0,0,3-3,2.71,2.71,0,0,0,0-.41l-4-2.36a3,3,0,0,0,1,5.74Z"/><path d="M49.89,22.38a3,3,0,0,0,.81-5.82L47,18.75a2.84,2.84,0,0,0-.08.66A3,3,0,0,0,49.89,22.38Z"/><path d="M13.49,37.13,0,10.27l.17,11.5c-.73,4.47,4.52,16.49,5.12,17.86L5.9,41l1.46-.74,3.56,7.17L16.57,45l-4-7.39ZM2.94,22.44,9.69,35.89l-2.4,1.22C5.23,32.24,2.67,25.05,2.94,22.44Zm9.67,21.17-.35.15L9.89,39l.16-.09Z"/></g></g></svg>