<svg xmlns="http://www.w3.org/2000/svg" viewBox="0 0 54.17 54.17"><title>илья</title><g id="Слой_2" data-name="Слой 2"><g id="Слой_1-2" data-name="Слой 1"><path d="M27.08,0A27.09,27.09,0,1,0,54.17,27.08,27.09,27.09,0,0,0,27.08,0Zm0,48.5A21.42,21.42,0,1,1,48.5,27.08,21.44,21.44,0,0,1,27.08,48.5Z"/><circle cx="19.41" cy="16.78" r="2.97"/><circle cx="35.18" cy="17.41" r="2.97"/><path d="M35.51,29.92H32.67v3.33s.17,2.92-2.08,2.92S29.42,33,27.17,33s-1.42,3.13-3.67,3.13-2-3.13-2-3.13V29.92H18.67v3c0,.09,0,.22,0,.36a6.36,6.36,0,0,0,1.45,4.23A4.53,4.53,0,0,0,23.5,39a4.3,4.3,0,0,0,3.57-1.74A4.16,4.16,0,0,0,30.59,39,4.67,4.67,0,0,0,34,37.56a6.24,6.24,0,0,0,1.48-4.16V29.92Z"/></g></g></svg>