<svg xmlns="http://www.w3.org/2000/svg" viewBox="0 0 54.17 54.17"><title>лицо поехало-3</title><g id="Слой_2" data-name="Слой 2"><g id="Слой_1-2" data-name="Слой 1"><path d="M27.08,0A27.09,27.09,0,1,0,54.17,27.08,27.09,27.09,0,0,0,27.08,0Zm0,48.5A21.42,21.42,0,1,1,48.5,27.08,21.44,21.44,0,0,1,27.08,48.5Z"/><circle cx="19.78" cy="16.22" r="2.97"/><circle cx="35.97" cy="11.86" r="2.97"/><path d="M19,34.21a9.73,9.73,0,0,1,4.67-10l-2.56-5.06a15.35,15.35,0,0,0,4.52,28.5l.77-5.62A9.73,9.73,0,0,1,19,34.21Z"/></g></g></svg>