<svg xmlns="http://www.w3.org/2000/svg" viewBox="0 0 54.17 54.17"><title>улыбается</title><g id="Слой_2" data-name="Слой 2"><g id="Слой_1-2" data-name="Слой 1"><path d="M27.08,0A27.09,27.09,0,1,0,54.17,27.08,27.09,27.09,0,0,0,27.08,0Zm0,48.5A21.42,21.42,0,1,1,48.5,27.08,21.44,21.44,0,0,1,27.08,48.5Z"/><circle cx="19.41" cy="18.78" r="2.97"/><circle cx="35.18" cy="19.41" r="2.97"/><path d="M27.08,36.79a9.7,9.7,0,0,1-9-6.25l-5.42,1.69a15.36,15.36,0,0,0,28.86.25l-5.42-1.69A9.72,9.72,0,0,1,27.08,36.79Z"/></g></g></svg>