<svg xmlns="http://www.w3.org/2000/svg" viewBox="0 0 54.17 54.17"><title>хитрый</title><g id="Слой_2" data-name="Слой 2"><g id="Слой_1-2" data-name="Слой 1"><path d="M27.08,0A27.09,27.09,0,1,0,54.17,27.08,27.09,27.09,0,0,0,27.08,0Zm0,48.5A21.42,21.42,0,1,1,48.5,27.08,21.44,21.44,0,0,1,27.08,48.5Z"/><path d="M27.08,34.66a9.7,9.7,0,0,1-9-6.24l-5.42,1.69a15.36,15.36,0,0,0,28.86.24l-5.42-1.69A9.72,9.72,0,0,1,27.08,34.66Z"/><path d="M19.41,21.75a3,3,0,0,0,3-3,2.7,2.7,0,0,0-.05-.41l-4-2.36a3,3,0,0,0,1.06,5.74Z"/><path d="M35.18,22.38A3,3,0,0,0,36,16.56l-3.7,2.19a2.84,2.84,0,0,0-.08.66A3,3,0,0,0,35.18,22.38Z"/></g></g></svg>