<svg xmlns="http://www.w3.org/2000/svg" viewBox="0 0 54.17 54.17"><title>целующий смайлик вправо</title><g id="Слой_2" data-name="Слой 2"><g id="Слой_1-2" data-name="Слой 1"><circle cx="19.41" cy="17.7" r="2.97"/><circle cx="35.18" cy="18.32" r="2.97"/><path d="M27.08,0A27.09,27.09,0,1,0,54.17,27.08,27.09,27.09,0,0,0,27.08,0Zm0,48.5A21.42,21.42,0,1,1,48.5,27.08,21.44,21.44,0,0,1,27.08,48.5Z"/><path d="M34.78,29.12a4.66,4.66,0,0,0-1.44-3.43,6.19,6.19,0,0,0-4.16-1.48H25.7V27H29S32,26.87,32,29.12s-3.13,1.17-3.13,3.42S32,34,32,36.21s-3.13,2-3.13,2H25.7v2.84h3.4a6.31,6.31,0,0,0,4.23-1.45,4.55,4.55,0,0,0,1.45-3.39A4.3,4.3,0,0,0,33,32.64,4.13,4.13,0,0,0,34.78,29.12Z"/></g></g></svg>