<svg xmlns="http://www.w3.org/2000/svg" viewBox="0 0 754.3 248.65"><defs><style>.cls-1{fill:#fff;}</style></defs><title>grahic 4</title><g id="Слой_2" data-name="Слой 2"><g id="work4"><path class="cls-1" d="M698.21,210.33a35.23,35.23,0,0,1-8.4-1.19l-.21-.08c-1-.48-2.21-1-3.42-1.46s-2.54-1-3.58-1.54l-.17-.08-.13-.15c-20.57-23.25-52-23-79.77-22.71-2.87,0-5.7,0-8.48,0a9.6,9.6,0,0,0-3.63.93,11.47,11.47,0,0,1-4.37,1.07,116.42,116.42,0,0,0-17.53,1.65l-2.33.34c-20.3,1.13-38,.8-54.2-1a11.39,11.39,0,0,1-4.31-1.07,9.55,9.55,0,0,0-3.63-.93c-18.14,0-35.5-5.11-52.28-10-11.61-3.49-23.32-7.92-31.09-11-2.74-1-5.7-1.85-8.56-2.63-5.45-1.5-11.08-3.05-16-6.24l1.08-1.69c4.69,3,10.17,4.54,15.48,6,2.9.8,5.91,1.62,8.75,2.69,7.76,3.1,19.4,7.52,30.94,11,16.64,4.89,33.85,10,51.71,10a11.29,11.29,0,0,1,4.37,1.07,9.6,9.6,0,0,0,3.63.93h.11c16.09,1.79,33.7,2.12,53.83,1l2.24-.33a120.28,120.28,0,0,1,17.82-1.67,9.55,9.55,0,0,0,3.63-.93,11.29,11.29,0,0,1,4.37-1.07c2.77,0,5.6,0,8.46,0,28.12-.25,60-.55,81.16,23.24.94.45,2.11.92,3.25,1.38s2.46,1,3.48,1.48c5.82,1.45,10.38,1.46,13.2.05,1.42-.7,1.94-1.85,1.71-3.73a20.32,20.32,0,0,0-2.13-5.87c-1.67-2.5-3.49-4.95-5.26-7.32-6.94-9.3-13.49-18.09-11.86-30.31,2.61-15.65,11.28-29.81,27.31-44.61,1.4-1.16,2.9-2.27,4.45-3.33a77.65,77.65,0,0,1-14.55,5,19.1,19.1,0,0,0-3.71,1.89,21.28,21.28,0,0,1-4.19,2.09c-15.06,5-30.34,8.07-45.12,11-29.88,3.86-61.27,3.18-93.36-2-26.11-3.27-47.87-6.23-70.09-12-11.41-3.6-23-6.16-34.17-8.64-7.48-1.65-15.22-3.36-22.83-5.37-2.09-.69-4.13-1.48-6.11-2.25a62.4,62.4,0,0,0-11.8-3.73c-7-1.5-13.64-2.77-20-4s-12.94-2.49-19.92-4a62.72,62.72,0,0,1-6.5-.51,62,62,0,0,0-6.39-.49h-.15c-29.53-4.62-60.85-5.27-95.76-2-16.83,1.92-33.63,4.31-49.89,6.62-26,3.7-53,7.53-80.13,9.39-16.08.5-32.11-.26-47.62-1s-31.45-1.5-47.42-1c-2.14.24-4.38.43-6.54.61-6.78.57-13.19,1.1-19.09,3.31a21.15,21.15,0,0,0-2.35,1.41A21.51,21.51,0,0,1,7.56,108C1.8,111.9.36,118.4,3.89,124.62c2.46,3.26,5.64,5.13,9.67,7.5l2,1.19.2.15c.2.21.73.21,1.29.21a3.67,3.67,0,0,1,2.61.7C37,145.07,49.56,145.85,67,146.93c3.39.22,6.89.43,10.65.74l-.16,2c-3.74-.31-7.23-.53-10.62-.74C49.79,147.87,36.31,147,18.52,136l-.18-.14c-.2-.21-.73-.21-1.29-.21a3.67,3.67,0,0,1-2.61-.7l-1.9-1.13c-4.07-2.39-7.58-4.46-10.29-8.07l-.07-.11c-4.07-7.12-2.34-14.89,4.32-19.32l.1-.07A21.74,21.74,0,0,0,9,104.84a23.09,23.09,0,0,1,2.6-1.57l.1,0c6.17-2.31,12.73-2.86,19.67-3.44,2.15-.19,4.38-.37,6.57-.62,16.12-.5,32.15.26,47.66,1s31.46,1.5,47.42,1C160.08,99.32,187,95.5,213,91.8c16.27-2.31,33.09-4.71,50-6.63,35.06-3.28,66.52-2.63,96.19,2a63.39,63.39,0,0,1,6.53.5,59.59,59.59,0,0,0,6.39.5l.21,0c7,1.5,13.59,2.77,20,4s13,2.5,20,4A64.19,64.19,0,0,1,424.41,100c2,.76,4,1.55,6,2.21,7.52,2,15.23,3.68,22.7,5.33,11.23,2.48,22.84,5,34.28,8.66,22,5.76,43.75,8.71,69.82,12,31.94,5.15,63.14,5.82,92.75,2,14.65-2.94,29.87-6,44.81-11a19.4,19.4,0,0,0,3.81-1.91,20.23,20.23,0,0,1,4.19-2.09c9.95-2.3,18.53-6.85,27.62-11.66,2.68-1.42,5.46-2.89,8.25-4.29a27.38,27.38,0,0,1,7.63-1.59,29.06,29.06,0,0,0,5.81-1l1.43-.54.83,1.81c-3.92,2.12-8.34,3.28-12.62,4.4-2.18.57-4.24,1.11-6.22,1.77-1.43.81-2.91,1.63-4.4,2.46-5.75,3.19-11.69,6.49-16.37,10.39C699,131.38,690.56,145.18,688,160.33c-1.52,11.39,4.79,19.86,11.48,28.82,1.8,2.41,3.65,4.9,5.36,7.46l.06.11a21.93,21.93,0,0,1,2.35,6.57c.43,3.4-1.28,5-2.79,5.77A14.06,14.06,0,0,1,698.21,210.33Z"/><path class="cls-1" d="M108.41,105.26c-1.22,0-2.43,0-3.63,0s-2.39,0-3.58,0v-2c1.2,0,2.41,0,3.62,0,2.16,0,4.4.08,6.57,0a28.67,28.67,0,0,0,5.93-1.09c1.32-.34,2.69-.69,4.07-.91l5.84-.95c10.33-1.68,21-3.42,31.52-5.3a205.8,205.8,0,0,0,21.47-4.78c3.25-1,6.63-1.81,9.89-2.63a152.4,152.4,0,0,0,16.3-4.74c11.23-4.2,22.88-7.74,34.15-11.16,3.68-1.12,7.36-2.24,11-3.39s7.41-2.69,11-4.18,7.1-3,10.82-4.14c3.3-1,6.59-2.37,9.78-3.64,2.36-.95,4.81-1.93,7.26-2.8,5-1.79,10.28-3.23,15.34-4.62a160,160,0,0,0,20.69-6.72c4.64-2,9.46-3.66,14.13-5.27,5.08-1.75,10.34-3.57,15.34-5.81.65-.29,1.31-.58,2-.86.88-.39,1.79-.77,2.67-1.18A57.74,57.74,0,0,0,368,22.93c1.84-1.84,6-4.16,9.11-3.75l1.38.18-.61,1.25c-1,2.13-3.59,3.05-6.06,3.94a15.94,15.94,0,0,0-3.44,1.53,17,17,0,0,0-1.68,1.39,14.5,14.5,0,0,1-2.55,2c-.83.47-1.69.91-2.57,1.32s-1.58,1.11-2.41,1.69l-1.39,1c-1,.69-2,1.34-3,2a35.62,35.62,0,0,0-5.1,3.59l-.81.73a36,36,0,0,1-6.17,4.82c-1.06.62-2.65,1.55-2.8,2.46a1.93,1.93,0,0,0,.67,1.46c1.18,1.33,3.33,1.35,5.41,1.37a20.24,20.24,0,0,1,2.95.18c7.11,1.2,14.63,1.07,21.9,1,2.26,0,4.52-.07,6.76-.07h22.36c4,0,8.09-.29,12-.57,4.16-.29,8.46-.59,12.77-.56a81.41,81.41,0,0,0,12.21-1.14,79.46,79.46,0,0,1,12.66-1.16h.12c3,0,4.95.08,7.59-1a14.67,14.67,0,0,1,1.89-.56c1.38-1,3-2,4.63-1.6l1.38.29-.74,1.21c-.56.91-2,1.35-4.39,1.94l-.68.53c-.53.42-1,.82-1.49,1.12a32.61,32.61,0,0,1-7.55,3.45c-5.53,1.9-11.05,4.17-16.4,6.36l-1.22.5c-2.28.94-4.63,1.68-6.9,2.4A70.14,70.14,0,0,0,417.7,65a80.54,80.54,0,0,1-16.25,5.5c-3.17.67-6.36,1.61-9.45,2.52-2.8.82-5.7,1.67-8.6,2.34a81.06,81.06,0,0,1-10.16,1.41c-2.41.23-4.89.47-7.29.87a28.9,28.9,0,0,1-5.77.21c-1.23,0-2.5-.08-3.74,0a11.08,11.08,0,0,0-2.73.61,15.21,15.21,0,0,1-2.56.63,25,25,0,0,1-4.44.14,13.06,13.06,0,0,0-6.35.86l-.82-1.82a14.92,14.92,0,0,1,7.23-1,23.76,23.76,0,0,0,4.1-.12,14.5,14.5,0,0,0,2.25-.56,13.25,13.25,0,0,1,3.2-.7c1.33-.08,2.65,0,3.92,0a26.74,26.74,0,0,0,5.38-.18c2.47-.41,5-.65,7.43-.89A79.22,79.22,0,0,0,383,73.4c2.84-.65,5.7-1.49,8.47-2.31,3.13-.92,6.36-1.87,9.6-2.56a78.34,78.34,0,0,0,15.84-5.36,71.94,71.94,0,0,1,8.33-3c2.23-.7,4.53-1.43,6.74-2.34l1.22-.5c5.37-2.2,10.93-4.49,16.51-6.4,1.47-.5,2.74-1,3.95-1.52a39.28,39.28,0,0,1-4,.07h-.12a80,80,0,0,0-12.35,1.13,83.1,83.1,0,0,1-12.5,1.17c-4.24,0-8.5.27-12.62.56-3.95.28-8,.56-12.13.57H377.56c-2.23,0-4.48,0-6.73.07-7.36.12-15,.25-22.26-1a17.82,17.82,0,0,0-2.64-.15c-2.4,0-5.12,0-6.88-2a3.71,3.71,0,0,1-1.15-3.1c.29-1.85,2.3-3,3.76-3.88a33.71,33.71,0,0,0,5.84-4.57l.82-.74a26.68,26.68,0,0,1,3.19-2.41c-3.43,1.33-6.89,2.52-10.28,3.69-4.63,1.59-9.42,3.24-14,5.21-6.78,2.93-14,4.9-20.95,6.82-5,1.38-10.23,2.81-15.2,4.58-2.41.85-4.84,1.82-7.19,2.76-3.22,1.29-6.55,2.62-9.91,3.69-3.64,1.16-7.2,2.65-10.66,4.09S256,69,252.2,70.17s-7.37,2.27-11.06,3.39c-11.24,3.42-22.85,7-34,11.13a155.74,155.74,0,0,1-16.51,4.8c-3.24.82-6.6,1.66-9.81,2.61a207.19,207.19,0,0,1-21.69,4.83c-10.53,1.89-21.22,3.62-31.55,5.3l-5.83,1c-1.3.21-2.63.55-3.91.88a30.85,30.85,0,0,1-6.34,1.15C110.46,105.25,109.43,105.26,108.41,105.26Z"/><path class="cls-1" d="M399.67,248.65a23,23,0,0,1-7.29-1.77c-1.15-.41-2.24-.8-3.17-1l-3.32-.83c-5.5-1.37-11-2.73-16.45-4.14-6.57-1.69-13.24-3.67-19.85-5.88a28.84,28.84,0,0,0-5.23-1.05c-.86-.13-1.73-.25-2.6-.4a35.57,35.57,0,0,1-5-1.41,36,36,0,0,0-4.76-1.34c-7.19-1.32-13.63-4.46-19.86-7.49a114.93,114.93,0,0,0-12.72-5.58,73.91,73.91,0,0,1-8.33-3.65,67.16,67.16,0,0,0-9.05-3.88c-4.49-1.43-9.08-3-13.51-4.55l-5.31-1.83c-5.91-2-11.78-4.59-17.47-7.08l-2.19-1c-2.95-1.29-6-2.42-9-3.52-3.12-1.16-6.34-2.35-9.48-3.73s-6.36-2.57-9.51-3.72-6.44-2.37-9.58-3.76l-2-.9c-6.47-2.86-12.58-5.56-19.34-7.79-7.4-2.44-15-4.82-22.28-7.12q-8.26-2.59-16.51-5.24a83.6,83.6,0,0,0-8.18-2.05,73.65,73.65,0,0,1-9.48-2.49c-4.15-1.49-8.42-2.82-12.55-4.11l-3.77-1.18c-1.53-.49-3.1-.93-4.61-1.35-2.07-.59-4.22-1.19-6.36-1.93A47.93,47.93,0,0,0,92.5,145l-1.17-.19c-1.37-.22-2.71-.41-4-.6-2.79-.4-5.68-.81-8.53-1.47l-1-.21c-1.89-.38-4.24-.87-5.72-2.47l1.47-1.35c1,1.12,3,1.52,4.65,1.86l1,.22c2.78.64,5.49,1,8.37,1.44,1.35.19,2.7.39,4.07.61l1.17.18a51.36,51.36,0,0,1,8.72,1.93c2.09.72,4.21,1.32,6.25,1.89,1.53.43,3.11.87,4.67,1.37l3.76,1.18c4.15,1.3,8.44,2.64,12.64,4.14a73.18,73.18,0,0,0,9.22,2.42c2.75.59,5.59,1.2,8.37,2.09,5.5,1.78,11,3.51,16.5,5.24,7.32,2.31,14.89,4.69,22.31,7.13a208.77,208.77,0,0,1,19.52,7.87l2,.89c3.08,1.37,6.33,2.56,9.46,3.71s6.47,2.37,9.63,3.77,6.27,2.54,9.36,3.68,6.09,2.25,9.09,3.57l2.2,1c5.64,2.47,11.48,5,17.3,7l5.32,1.83c4.42,1.53,9,3.11,13.47,4.53a69.86,69.86,0,0,1,9.32,4,72.21,72.21,0,0,0,8.11,3.56A118.52,118.52,0,0,1,313,221.5c6.1,3,12.42,6.05,19.34,7.32a38.18,38.18,0,0,1,5,1.41,33.66,33.66,0,0,0,4.74,1.34c.85.15,1.69.27,2.53.38a30.7,30.7,0,0,1,5.59,1.15c6.56,2.19,13.19,4.15,19.7,5.83,5.49,1.41,10.95,2.77,16.44,4.14l3.32.83c1,.26,2.17.67,3.36,1.1a24.43,24.43,0,0,0,6.09,1.63c-1-.58-2.11-1.06-3.23-1.56-.86-.39-1.75-.79-2.65-1.24a73,73,0,0,1-8.86-5.61c-1.17-.83-2.34-1.65-3.55-2.46a59.76,59.76,0,0,0-8.54-4.45c-2.09-.94-4.25-1.92-6.31-3.07-3.49-1.94-6.87-4.19-10.14-6.36-2.74-1.82-5.58-3.71-8.46-5.39a70.75,70.75,0,0,1-6.69-4.64,56.13,56.13,0,0,0-8.06-5.36c-2.32-1.18-4.57-2.47-6.75-3.71-1.32-.74-2.63-1.49-4-2.22a75.21,75.21,0,0,0-10.21-4.34l-2.31-.86a22.58,22.58,0,0,1-2.53-1.19c-1.57-.83-3.06-1.61-4.73-1.5l-.15-2c3.54-.3,7.2,1,10.74,2.27a46.66,46.66,0,0,0,5.33,1.68,43.06,43.06,0,0,0,5.53.73c1.51.14,3.07.28,4.62.55a66.93,66.93,0,0,1,8.7,2.3c1,.32,2,.64,3,.94,1.65.49,3.31,1.06,4.92,1.61a76.29,76.29,0,0,0,7.42,2.27c2.27.52,4.66.83,7,1.13s4.37.56,6.53,1A58.41,58.41,0,0,1,372,207a57.69,57.69,0,0,0,6.2,1.77,54.14,54.14,0,0,0,6.22.75,53.06,53.06,0,0,1,6.67.83c4,.84,8.07,1.38,12,1.9,3.35.44,6.82.9,10.25,1.54,2,.39,4.06.92,6,1.43a64.06,64.06,0,0,0,7.68,1.69c1,.13,2,.35,3,.56a25.73,25.73,0,0,0,3.73.63,26,26,0,0,0,3.18,0,20.42,20.42,0,0,1,5.1.2,42.93,42.93,0,0,1,4.39,1.26c.85.27,1.68.54,2.51.78a14.25,14.25,0,0,1,2.41,1c.46.23,1,.48,1.46.69-2.6-2.85-9.19-4.11-14.21-5.08a51.08,51.08,0,0,1-5.3-1.18c-4.76-1.55-9.54-3.28-14.16-5-5.64-2-11.46-4.17-17.26-5.93-1.74-.53-3.54-1-5.29-1.48-6.05-1.6-12.31-3.27-17.42-7.47-3.73-3.08-8.5-4.66-13.12-6.19l-2.23-.75a80.22,80.22,0,0,1-11.27-5.22c-1.3-.68-2.6-1.36-3.91-2a48.73,48.73,0,0,1-4.45-2.64c-1.31-.83-2.65-1.69-4-2.41-.65-.33-1.33-.66-2-1a34.15,34.15,0,0,1-4.43-2.38,111.3,111.3,0,0,1-12.8-10.78L318,159.8c-.83-.76-1.65-1.55-2.47-2.33-1.33-1.29-2.72-2.62-4.16-3.81a13.42,13.42,0,0,0-1.85-1.13c-2-1.08-4.46-2.43-4.58-4.76l-.12-2.21,1.73,1.38c2.35,1.85,5.06,2.71,7.92,3.61l1.33.43a92.81,92.81,0,0,0,12.37,3.09c3.75.67,7.56,1.23,11.25,1.79,5,.74,10.14,1.51,15.22,2.52a37.3,37.3,0,0,0,5,.54,38.59,38.59,0,0,1,5.24.56,34.27,34.27,0,0,0,6.67.42c.73,0,1.46,0,2.21,0a94,94,0,0,1-10.83-3.58,73.68,73.68,0,0,1-12.29-7l-1.77-1.16c-1-.65-2.2-1.27-3.46-1.92-3-1.56-6.47-3.34-8.22-6.24l-.89-1.46,1.71-.06a9.21,9.21,0,0,1,4,1.17,16.28,16.28,0,0,0,1.84.75c1.33.38,2.73.66,4.08.93,1.13.23,2.29.47,3.43.76,2,.51,4,1.08,6,1.64,3,.83,6,1.69,9,2.37,2.55.58,5.15,1,7.66,1.48,6.51,1.16,13.24,2.35,19.41,5.69a33.34,33.34,0,0,0,9.6,3.1l1.41.31a24.94,24.94,0,0,1,4.6,1.64,22.85,22.85,0,0,0,4.48,1.57,27.24,27.24,0,0,0,6.09.16,52.8,52.8,0,0,1,5.62,0,29.57,29.57,0,0,0,4.6,0,11.68,11.68,0,0,0-2.59-1c-.43-.12-.85-.24-1.22-.37a8.3,8.3,0,0,1-3.78-2.62c-.39-.41-.79-.83-1.31-1.31a27.25,27.25,0,0,0-5.74-3.61,24.5,24.5,0,0,1-6.57-4.36l1.45-1.38a23,23,0,0,0,6.05,4,28.23,28.23,0,0,1,6.15,3.9c.58.53,1,1,1.42,1.42a6.42,6.42,0,0,0,3,2.1c.34.12.73.23,1.12.34,1.79.51,4,1.15,4.89,3.13l.46,1-1.09.33a20.42,20.42,0,0,1-6.94.34,51.52,51.52,0,0,0-5.41,0,28.66,28.66,0,0,1-6.56-.2,24.22,24.22,0,0,1-4.89-1.7,24.54,24.54,0,0,0-4.23-1.52l-1.4-.3a34.69,34.69,0,0,1-10.14-3.31c-5.89-3.18-12.16-4.29-18.81-5.47-2.53-.45-5.15-.91-7.75-1.5-3-.69-6.12-1.56-9.1-2.4-2-.55-4-1.12-6-1.62-1.09-.28-2.22-.51-3.32-.74-1.39-.28-2.83-.57-4.24-1a14.46,14.46,0,0,1-1.94-.77,35.29,35.29,0,0,0,5,2.92c1.3.67,2.53,1.31,3.62,2l1.79,1.17a71.81,71.81,0,0,0,11.95,6.76c8.32,3.39,17.33,5.22,26,7l4.5.93,6.54,1.36-6.65.61a13.76,13.76,0,0,1-4.83-.63,15.65,15.65,0,0,0-3.17-.6c-2.58-.14-4.9-.45-7.36-.77l-1.78-.23a41.1,41.1,0,0,0-5.43-.22,37,37,0,0,1-7.06-.46,37,37,0,0,0-5-.53,37.52,37.52,0,0,1-5.27-.57c-5-1-10.17-1.77-15.13-2.51-3.7-.55-7.52-1.12-11.3-1.79a95.34,95.34,0,0,1-12.64-3.16l-1.32-.42L312.5,152l.09.08c1.51,1.24,2.92,2.6,4.28,3.91.8.77,1.61,1.54,2.43,2.3s2,1.8,3,2.73a109,109,0,0,0,12.56,10.59,30.48,30.48,0,0,0,4.17,2.23c.71.34,1.41.68,2.08,1,1.46.75,2.85,1.64,4.18,2.5a48.55,48.55,0,0,0,4.28,2.53c1.32.66,2.63,1.35,3.94,2.05a79.31,79.31,0,0,0,11,5.09l2.21.74c4.79,1.59,9.75,3.23,13.76,6.54,4.78,3.93,10.55,5.47,16.67,7.09,1.76.47,3.58,1,5.36,1.49,5.84,1.79,11.69,3.91,17.35,6,4.61,1.67,9.37,3.4,14.09,4.93A48.78,48.78,0,0,0,439,215c6.45,1.24,15.29,2.93,16.75,8.23l.31,1.12-1.15.14c-1.34.17-2.91-.6-4.42-1.35a14.83,14.83,0,0,0-2.08-.9c-.84-.24-1.71-.52-2.57-.8a43.52,43.52,0,0,0-4.19-1.2,17.93,17.93,0,0,0-4.59-.16,30,30,0,0,1-3.42,0,27.74,27.74,0,0,1-4-.68c-1-.21-1.89-.41-2.82-.53a67.46,67.46,0,0,1-7.92-1.74c-1.92-.5-3.91-1-5.88-1.39-3.38-.64-6.82-1.09-10.14-1.53-4-.52-8.1-1.07-12.17-1.92a51,51,0,0,0-6.41-.79,55.53,55.53,0,0,1-6.46-.79,57.89,57.89,0,0,1-6.42-1.83,58.63,58.63,0,0,0-6-1.73c-2.09-.44-4.27-.73-6.37-1-2.36-.3-4.79-.62-7.15-1.16a78.27,78.27,0,0,1-7.63-2.33c-1.59-.54-3.23-1.11-4.83-1.58l-3.08-.95a65.51,65.51,0,0,0-8.44-2.24c-1.47-.26-3-.39-4.46-.53s-3.12-.28-4.7-.56c1.41.61,2.81,1.27,4.17,2s2.66,1.49,4,2.25c2.16,1.23,4.39,2.5,6.67,3.66a56.79,56.79,0,0,1,8.35,5.54,67.79,67.79,0,0,0,6.51,4.51c2.92,1.71,5.78,3.62,8.55,5.46,3.23,2.15,6.58,4.37,10,6.27,2,1.11,4.11,2.07,6.16,3a61.36,61.36,0,0,1,8.83,4.6c1.22.82,2.41,1.66,3.59,2.49a69.92,69.92,0,0,0,8.62,5.46c.85.44,1.72.83,2.56,1.2a26,26,0,0,1,5.79,3.24l1.36,1.07-1.61.64A6.89,6.89,0,0,1,399.67,248.65Z"/><path class="cls-1" d="M30,115.49a6.92,6.92,0,0,1-3.56-1.29,5.81,5.81,0,0,0-2.61-1.06l.09-2a7.5,7.5,0,0,1,3.54,1.34c1.06.63,2,1.18,3,1l.41,2A4.07,4.07,0,0,1,30,115.49Z"/><path class="cls-1" d="M133.22,142.37c-1.18,0-2.41-.07-3.62-.16l-1-.07c-5.57-.25-11-1.91-16.15-3.52l-.87-.27c-2.27-.7-4.43-1.61-6.53-2.49-1.1-.47-2.2-.93-3.32-1.37a55.84,55.84,0,0,0-8.13-2.22c-1-.22-2-.44-3-.68a52.19,52.19,0,0,0-12.51-1.33H78v-2h.09a54,54,0,0,1,13,1.39q1.45.34,2.94.66a57.38,57.38,0,0,1,8.43,2.32c1.14.44,2.25.91,3.37,1.38a66.94,66.94,0,0,0,6.34,2.43l.87.27c5.08,1.57,10.34,3.2,15.65,3.44l1,.06c4.05.3,6.56.15,7.5-.46a8,8,0,0,0-3.59-.79,16.72,16.72,0,0,1-1.77-.2,15.89,15.89,0,0,0-2.21-.22c-2.18-.12-4.65-.26-6.28-2.4l-.33-.44.19-.51c.88-2.44,3.49-2.67,5.39-2.83a12.77,12.77,0,0,0,1.65-.22l.61-.13c3.35-.74,4.73-1.39,5.24-1.88a7.34,7.34,0,0,0-3.11-.91c-.42-.07-.82-.13-1.19-.21a18.6,18.6,0,0,1-2.61-.78c-.46-.17-.93-.33-1.43-.48a6.59,6.59,0,0,0-1.16-.17c-1.56-.16-4.18-.43-4.27-3-.07-2,1.26-2.36,2.24-2.6l.52-.14a26.72,26.72,0,0,1,6.66-.78,39.76,39.76,0,0,0,4.19-.29,16.26,16.26,0,0,1,2.49,0c1.11,0,4.21.12,5.24-.31-1.19-.63-3.32-.64-4.67-.64h-.48c-1.51,0-3,0-4.55,0H113.61v-2H134c1.52,0,3.05,0,4.58,0h.46c2.06,0,5.17,0,6.71,1.72l.24.27v.36a2,2,0,0,1-.59,1.5c-1.16,1.18-3.74,1.2-7,1.1a16.42,16.42,0,0,0-2.14,0,41,41,0,0,1-4.42.31,24.9,24.9,0,0,0-6.16.7l-.59.15a3.46,3.46,0,0,0-.71.23,1.39,1.39,0,0,0,0,.37c0,.66.55.9,2.47,1.1a8.19,8.19,0,0,1,1.53.24c.53.16,1,.34,1.53.52a16.5,16.5,0,0,0,2.34.7c.34.07.71.13,1.09.19,1.63.25,3.66.55,4.83,2.09l.28.36-.09.45c-.46,2.19-3.86,3.12-7,3.82l-.58.13a13.65,13.65,0,0,1-1.93.26c-1.64.14-2.83.3-3.42,1,1.09,1,2.7,1.07,4.38,1.16a18.59,18.59,0,0,1,2.49.26c.4.08,1,.12,1.54.17,2.05.16,4.59.36,5.6,2.31l.22.41-.18.43C138.71,141.92,136.15,142.37,133.22,142.37Z"/><path class="cls-1" d="M590.09,136.64c-1.51,0-3,0-4.52-.08s-3-.09-4.41-.09v-2c1.48,0,3,.05,4.47.09,2.6.07,5.28.15,7.84,0a36.22,36.22,0,0,0,9.25-2.37l1.82-.62.17-.06c6.39-2.16,13-4.39,19-7.53A150,150,0,0,0,639,114.24l.51-.35A226.46,226.46,0,0,0,658.23,100C669.74,90.08,678.7,81,685,68.75a430.91,430.91,0,0,1,22.09-38.66,65,65,0,0,1,7.09-14.56,33,33,0,0,0,3-6.62c.16-.45.32-.89.49-1.33A10.28,10.28,0,0,0,718,5.41c.23-2.1.51-4.72,2.81-5.21l.94-.2.24.94a16,16,0,0,1,.24,4.53c0,.56,0,1.11,0,1.64s0,1.14,0,1.72a14.82,14.82,0,0,1-.64,6.11,17.73,17.73,0,0,1-6,7.92c-2.53,1.91-4,4-6,7.06l-.69,1c-.32,1-.62,2-.9,2.93a39.39,39.39,0,0,0-.83,4.06,32.59,32.59,0,0,1-1.28,5.54c-.55,1.56-1.19,3.11-1.81,4.6-.83,2-1.69,4.1-2.32,6.17-.73,2.41-1.6,4.53-2.51,6.77l-.88,2.16A41.25,41.25,0,0,0,696.7,69a48.78,48.78,0,0,1-1.47,5.41,61,61,0,0,1-4.31,8.82,47.94,47.94,0,0,0-4.74,10.32,38.36,38.36,0,0,0-1.39,12.17,10.25,10.25,0,0,0,1.24,4c.31.67.62,1.36.9,2.12a37.08,37.08,0,0,1,1.51,6l.16.85c.16.84.3,1.7.45,2.56.27,1.61.55,3.28,1,4.81l0,.11a7.64,7.64,0,0,0,1.2,2.91,1.9,1.9,0,0,0,.61.4,2.43,2.43,0,0,1,1.59,1.94l-2,.33c0-.24,0-.26-.49-.48a3.66,3.66,0,0,1-1.2-.83,9.08,9.08,0,0,1-1.66-3.76l0-.11c-.43-1.62-.72-3.33-1-5-.15-.85-.29-1.69-.45-2.51l-.16-.86a35.56,35.56,0,0,0-1.42-5.71c-.25-.68-.55-1.33-.84-2a12,12,0,0,1-1.42-4.79A40.08,40.08,0,0,1,684.25,93a49.37,49.37,0,0,1,4.92-10.77,59.42,59.42,0,0,0,4.18-8.52,50.05,50.05,0,0,0,1.41-5.18,41.26,41.26,0,0,1,1.74-6.1c.29-.74.58-1.46.88-2.17.89-2.21,1.74-4.28,2.45-6.6.66-2.17,1.54-4.29,2.39-6.35.61-1.47,1.24-3,1.77-4.51a31,31,0,0,0,1.19-5.2c.06-.39.13-.78.2-1.17-6,9.56-12,20.3-18.62,33.21-6.43,12.52-15.54,21.77-27.22,31.81a229.88,229.88,0,0,1-18.86,14l-.48.33a149.68,149.68,0,0,1-15.57,9.88c-6.14,3.22-12.82,5.47-19.28,7.65l-.17.06-1.8.62a37.18,37.18,0,0,1-9.78,2.47C592.44,136.62,591.27,136.64,590.09,136.64Zm130.23-133a17.27,17.27,0,0,0-.29,2,11.67,11.67,0,0,1-.49,2.67c-.16.43-.33.87-.49,1.31a33.87,33.87,0,0,1-3.22,7A61.65,61.65,0,0,0,712,23.4a20,20,0,0,1,2.39-2.14,15.7,15.7,0,0,0,5.39-7.06,13,13,0,0,0,.5-5.3c0-.59,0-1.19,0-1.78s0-1.15,0-1.73S720.32,4.22,720.32,3.64Z"/><path class="cls-1" d="M174.89,139.63a7.15,7.15,0,0,1-2.84-.51c-2.37-1-3.21-3.92-2.23-7.75a30.94,30.94,0,0,1,2.66-6.39,38.66,38.66,0,0,0,1.94-4.24l1.88.68c-.18.5-.38,1-.6,1.49a8.84,8.84,0,0,1,6.9-3.8c3-.1,5.16.14,6.13,4.1,1.41,5.72-4.09,11.83-7.56,14.53A11.08,11.08,0,0,1,174.89,139.63Zm-.45-14.1-.18.35a30.07,30.07,0,0,0-2.51,6c-.19.75-1,4.51,1.09,5.43,1.93.83,5.58.07,7.1-1.12,3.35-2.61,7.93-8.09,6.85-12.48-.6-2.45-1.32-2.67-4.12-2.58-2.52.08-4.59,1.49-6.13,4.17l-.26-.15-.17.77Z"/><path class="cls-1" d="M220.6,129.86a5.89,5.89,0,0,1-4.85-2.39,5.61,5.61,0,0,1-1.22-4.31,2.07,2.07,0,0,1,0-.35c-.08-2.19,1.5-4.48,2.73-5.91a7.36,7.36,0,0,0,.35-.91l.37.11c.36-.38.62-.61.66-.65l.92-.87c1.62-1.54,3.15-3,5.88-3.14s6.26-.33,6.63,3.78c.26,2.86.37,6.15-1.66,8.89a13.09,13.09,0,0,1-7.56,5.45A9,9,0,0,1,220.6,129.86Zm-4-4.94a4.49,4.49,0,0,0,.72,1.33c1.13,1.48,2.8,1.94,5,1.37a11.19,11.19,0,0,0,6.46-4.7c1.46-2,1.57-4.34,1.28-7.52-.18-2-1.38-2.13-4.49-2-2,.11-3.13,1.15-4.65,2.6l-.95.9a12.72,12.72,0,0,0-1,1c-.27.59-.59,1.17-.9,1.73a13.07,13.07,0,0,0-1.48,3.42,1.74,1.74,0,0,0,.68,1Z"/><path class="cls-1" d="M268.7,122.46a27.68,27.68,0,0,1-4.33-.34,5.38,5.38,0,0,1-4.51-4.18,11.64,11.64,0,0,0,0,1.2l-2,0a9,9,0,0,1,2.61-6.92l.24-.28c1.53-1.74,3.84-4.36,5.89-5.15,2.38-.9,7.36.7,9,1.53,2.73,1.35,5.72,5.57,4.18,9.11C278.09,121.37,273.08,122.46,268.7,122.46Zm-5.49-10.29.08.1a8.37,8.37,0,0,0-1.61,4.18,3.5,3.5,0,0,0,3,3.69c3.79.64,11.44.72,13.25-3.46,1-2.31-1.27-5.55-3.24-6.52s-6-2-7.42-1.45C266.06,109.18,264.47,110.78,263.21,112.17Z"/><path class="cls-1" d="M314.52,118.32c-1.71,0-3.56-.25-4.57-1.64a4.57,4.57,0,0,1-.32-4.18,3.43,3.43,0,0,1,1.1-2.65c.31-.61.64-1.2.94-1.75.39-.72.73-1.34.91-1.79l1.36.56a6.72,6.72,0,0,1,2.91-1.21,9.06,9.06,0,0,1,8.5,2.75c2.59,2.8,1.35,4.35-.08,6.15-.2.25-.42.52-.64.82-2.2,2.89-4.38,2.87-7.38,2.86h-.12c-.33,0-.69,0-1.09,0S315.05,118.32,314.52,118.32Zm-3.23-3.94a1.74,1.74,0,0,0,.27,1.12c.69,1,2.83.85,4.38.78.44,0,.86,0,1.2,0h.12c2.87,0,4.18,0,5.78-2.07.23-.31.46-.59.67-.86,1.41-1.77,1.59-2,.17-3.54a7.05,7.05,0,0,0-6.69-2.14c-1.63.28-2.47,1.1-3.73,2.35l-.75.72-.31.29a17,17,0,0,0-.78,1.85c0,.11,0,.23,0,.36,0,.33,0,.72,0,1.19Z"/><path class="cls-1" d="M350.52,123.25a7.15,7.15,0,0,1-1.4-.14,4.13,4.13,0,0,1-2.9-2.12,4.83,4.83,0,0,1-.49-1.58l-.46.27a3.72,3.72,0,0,1-.35-3.34c-.2,0-.43,0-.7,0l0-2a7.5,7.5,0,0,1,2,.17c2.07-2,5.87-3.23,8-2.86,1.8.31,5.53,1,6.26,3.62s-2,4.77-3.17,5.69A12.29,12.29,0,0,1,350.52,123.25Zm-2.75-7.5a3.45,3.45,0,0,1,0,1.83,3.7,3.7,0,0,0,.2,2.49,2.07,2.07,0,0,0,1.54,1.08c2.08.45,5.2-.72,6.51-1.77.85-.67,2.85-2.26,2.48-3.6s-3.5-2-4.66-2.17A9.31,9.31,0,0,0,347.77,115.75Z"/><path class="cls-1" d="M386.65,127.84a9.49,9.49,0,0,1-4.9-1.29,3.65,3.65,0,0,1-2-2.24c-.24-1.12.4-2,1.09-3,.21-.3.44-.63.66-1s.45-.81.73-1.37c1.27-2.54,3.2-6.36,6.34-5.56l-.13.52a10.38,10.38,0,0,1,7.5,0c3.55,1.51,4.94,4.23,3.72,7.27s-5.23,4.6-7.6,5.5A15.26,15.26,0,0,1,386.65,127.84Zm-2.46-8.31-.17.33c-.3.59-.56,1.11-.8,1.51s-.5.76-.74,1.1c-.38.54-.82,1.16-.77,1.42,0,.09.15.4,1.06.94,2.25,1.33,5.14,1.35,8.59,0,2.07-.79,5.53-2.1,6.45-4.38,1-2.5-.88-3.93-2.65-4.68a8,8,0,0,0-7.79,1,3.54,3.54,0,0,0-1,4l-1.91.59A6.83,6.83,0,0,1,384.19,119.53Z"/><path class="cls-1" d="M426.9,134.09a10.47,10.47,0,0,1-6-1.63,3.76,3.76,0,0,1-1.72-2.53c-.24-1.74,1.06-3.33,2.2-4.73.24-.3.48-.59.7-.88l.13.09a10.64,10.64,0,0,1,5.55-2.22,10.3,10.3,0,0,1,8.25,2c1.33,1,2.44,1.94,2.54,3.23a4.08,4.08,0,0,1-1.47,3C434.94,132.63,430.77,134.09,426.9,134.09Zm-5-3.4c.05.05.12.09.18.14,3.4,2.4,10.88,1,13.58-1.81.83-.86.93-1.27.92-1.43,0-.5-1.2-1.38-1.75-1.8a8.42,8.42,0,0,0-6.73-1.63c-4.57.74-6.06,2.32-6.12,6.53Z"/><path class="cls-1" d="M464.53,151c-2.84,0-5.76-.68-7.64-2.47-3.14-3-.62-5.86,1-7.75a11.4,11.4,0,0,0,1.47-1.9l1.76,1a13.09,13.09,0,0,1-1.73,2.26c-2,2.3-2.75,3.47-1.16,5,2.72,2.59,8.53,2.23,11.51,1l.2-.08c1.19-.49,4.38-1.81,4.43-3.15s-3.09-3.18-4.76-3.51-2.25.1-3.66,1.43l-.22.21a11,11,0,0,1-1.44,1.05c-.85.55-2.12,1.38-2.09,2l-2,.11c-.09-1.77,1.62-2.89,3-3.79a9.36,9.36,0,0,0,1.17-.83l.22-.21c1.52-1.44,2.63-2.48,5.41-1.93,1.68.33,6.51,2.34,6.38,5.55-.11,2.62-3.73,4.12-5.67,4.92l-.19.08A16.52,16.52,0,0,1,464.53,151Z"/><path class="cls-1" d="M504.93,158.86a19,19,0,0,1-4.14-.42,5,5,0,0,1-3.66-2.46c-1-2.17.27-4.83,1.42-7.18l.17-.34,1.79.88-.16.34c-.91,1.85-2,4.14-1.42,5.44a3.16,3.16,0,0,0,2.3,1.37c4.8,1.09,13.47-.25,16.22-4.64a10.87,10.87,0,0,0-9.36-4.9,6.08,6.08,0,0,0-4.18,1.71,2.19,2.19,0,0,0-.44,2l-2,.43a4.15,4.15,0,0,1,.84-3.64,7.77,7.77,0,0,1,5.71-2.45h0a12.8,12.8,0,0,1,11.37,6.38l.27.47-.24.48C517.2,156.84,510.52,158.86,504.93,158.86Z"/><path class="cls-1" d="M546.27,162.52a9.05,9.05,0,0,1-5-1.47c-1.95-1.32-2.92-2.51-3.16-3.88a5.44,5.44,0,0,1,1.09-3.82,5.07,5.07,0,0,0-2.4,2.36c-.15.44-.23,1.12.84,2l-1.28,1.53a3.68,3.68,0,0,1-1.45-4.2c.92-2.69,5-4.62,7.25-4.72,2.68-.12,7.61,1.41,9.53,4.14a4.45,4.45,0,0,1,.5,4.41,5.59,5.59,0,0,1-3.68,3.31A8.09,8.09,0,0,1,546.27,162.52Zm-5.51-9.85.91.67c-1.24,1.68-1.69,2.69-1.56,3.49s.89,1.6,2.31,2.56a6.89,6.89,0,0,0,5.53.89,3.57,3.57,0,0,0,2.42-2.14,2.47,2.47,0,0,0-.29-2.51c-1.48-2.11-5.69-3.38-7.8-3.29A5.43,5.43,0,0,0,540.76,152.67Z"/><path class="cls-1" d="M581.76,165.2a12.73,12.73,0,0,1-6.49-1.54,5.45,5.45,0,0,1-2.45-5.41l-.12-.39a5.19,5.19,0,0,1,.42-4.14,4.42,4.42,0,0,1,3-2c3.34-.69,8.86.15,11.94,2.7a6.12,6.12,0,0,1,2.4,4.91,5.22,5.22,0,0,1-3,4.66A12.25,12.25,0,0,1,581.76,165.2Zm-6.15-3.87a3.29,3.29,0,0,0,.74.65c2.12,1.36,7.32,1.74,10.15.23a3.23,3.23,0,0,0,1.94-2.93,4.13,4.13,0,0,0-1.68-3.34c-2.5-2.08-7.41-2.87-10.26-2.28a2.45,2.45,0,0,0-1.67,1.1,2.56,2.56,0,0,0-.36,1.19,4.53,4.53,0,0,1,3-.35l-.36,2a2,2,0,0,0-2.16.57,5.38,5.38,0,0,0,1.64,1.47,14.16,14.16,0,0,1,1.36,1l-1.32,1.51A10,10,0,0,0,575.61,161.33Z"/></g></g></svg>