<?xml version="1.0" encoding="utf-8"?>
<!-- Generator: Adobe Illustrator 21.0.0, SVG Export Plug-In . SVG Version: 6.00 Build 0)  -->
<svg version="1.1" id="Capa_1" xmlns="http://www.w3.org/2000/svg" xmlns:xlink="http://www.w3.org/1999/xlink" x="0px" y="0px"
	 viewBox="0 0 510 510" style="enable-background:new 0 0 510 510;" xml:space="preserve">
<style type="text/css">
	.st0{fill:#FFFFFF;}
</style>
<g>
	<path class="st0" d="M408,408c-28,0-51,23-51,51s23,51,51,51s51-23,51-51S436,408,408,408z M408,478.8c-10.7,0-19.8-9.1-19.8-19.8
		s9.1-19.8,19.8-19.8s19.8,9.1,19.8,19.8S418.7,478.8,408,478.8z"/>
	<path class="st0" d="M153,408c-28,0-51,23-51,51s23,51,51,51s51-23,51-51S181,408,153,408z M153,478.8c-10.7,0-19.8-9.1-19.8-19.8
		s9.1-19.8,19.8-19.8s19.8,9.1,19.8,19.8S163.7,478.8,153,478.8z"/>
	<path class="st0" d="M181,280.5h188.7c20.4,0,35.7-10.2,43.4-25.5l91.8-165.7c5.1-5.1,5.1-7.7,5.1-12.8c0-15.3-10.2-25.5-25.5-25.5
		H107.1L84.2,0H0v51h51l91.8,193.8L107.1,306c-2.5,7.6-5.1,17.8-5.1,25.5c0,28,23,51,51,51h306v-51H163.2c-2.5,0-5.1-2.5-5.1-5.1
		v-2.6L181,280.5z M118.2,93.5h335.7l-78.5,141.7l-0.4,0.8c-0.3,0.7-1,2-5.3,2H186.7L118.2,93.5z"/>
</g>
</svg>
