<?xml version="1.0" encoding="utf-8"?>
<!-- Generator: Adobe Illustrator 21.0.0, SVG Export Plug-In . SVG Version: 6.00 Build 0)  -->
<svg version="1.1" id="Слой_1" xmlns="http://www.w3.org/2000/svg" xmlns:xlink="http://www.w3.org/1999/xlink" x="0px" y="0px"
	 viewBox="0 0 841.9 595.3" style="enable-background:new 0 0 841.9 595.3;" xml:space="preserve">
<style type="text/css">
	.st0{fill:#FFFFFF;}
	.st1{fill:#111111;}
	.st2{fill:#565656;}
</style>
<path class="st0" d="M771.7,260c-3.3-4.6-9.8-10.2-21.8-10.2c-3.2,0-6.2,0.4-9,1.2h-33.6v8.4c-3.3-3.1-7.2-5.5-11.5-7.1
	c-4.4-1.7-9-2.6-13.8-2.6c-4.7,0-9.4,0.9-13.8,2.6c-1.5,0.6-2.9,1.2-4.3,2l-5.9-2.6c-1.6-0.7-3.3-1.2-5.2-1.5
	c-1.6-0.3-3.5-0.4-5.7-0.4c-2.6,0-5.2,0.4-7.8,1.2h-33v6.3c-2.3-1.9-4.9-3.5-7.7-4.8c-4.2-1.9-9.1-2.8-14.4-2.8
	c-3.1,0-6.2,0.4-9.3,1.2h-39.4l-2.3-21.1h-38l-1.1,22.2c-3.9-1.6-8.3-2.4-13-2.4c-4.9,0-9.7,0.8-14.3,2.5L453,257
	c0,0,2.4-7.8,2.4-10.2c0-5.6-2.3-10.7-6.5-14.3c-3.7-3.2-8.6-4.9-14-4.9c-5.3,0-10.1,1.7-13.8,4.8c-2.8,2.3-5.3,7.2-5.1,16.2
	l-3.8-11.3h-29.5l-4.4,19.8c-2.6-4.5-14.1-7.4-19.2-7.4c-4.2,0-8.2,0.6-11.8,1.7c-2.1,0.7-4.1,1.5-5.9,2.5h-14.3L276,202.8
	c-1.7-1.7-3.9-3-6.2-3.6c-1.2-0.3-2.5-0.5-3.7-0.5h-7.7c-6.6-9.4-14.8-17.1-24.6-22.9c-13.1-7.8-28.3-11.8-45.1-11.9
	c-0.3,0-0.6,0-0.9,0c-8.5,0-37.8,1.7-60.4,23.7c-11.1,10.7-24.3,30.2-24.3,61.9c0,19.8,7.2,39.9,18.9,53.9v13H79.7v19.2
	c0,28.8,9.1,52.1,27,69.5c24.7,24,56.7,26.1,66.4,26.1c1.3,0.1,2.8,0.1,4.2,0.1c12.9,0,37.5-2.8,57.9-21.3c1.1-1,2.2-2.1,3.3-3.2
	h59.4c1.9,0,8.8-0.3,15.8-3.9c9-4.8,14.4-13.1,15.4-23.8l0.2,0.1c3.7,2.9,8,5.2,12.8,6.9c4.9,1.7,9.8,2.6,14.5,2.6l72.2-0.2h39.7
	c1.2,0.1,2.5,0.2,3.8,0.2s2.5-0.1,3.8-0.2h21.5v17.9H536v-17.7c0.3,0,0.5,0,0.8,0c4.5,0,8.9-1,13-2.9s7.7-4.6,10.9-8.2
	c3-3.4,5.5-7.5,7.2-12.3c1.7-4.6,2.6-9.9,2.6-15.6c0-5-0.6-9.7-1.9-13.9c-1.3-4.2-3.1-7.9-5.5-11.1h12.8h30.7h29.2l7.8-0.1l13.8-6.3
	c6.9,6.9,17.8,7.6,22.8,7.7l0,0h0.2h97.3v-1.2h0.2v-43C777.7,272.9,775.7,265.6,771.7,260z"/>
<path class="st1" d="M356.5,314.8c-3.5,0-7.1-0.7-10.8-2c-3.7-1.3-6.9-3-9.6-5.1l7.1-9.5c2.4,1.8,4.7,3.1,7,4
	c2.2,0.9,4.5,1.3,6.7,1.3c2.4,0,4.1-0.4,5.1-1.1c1.1-0.8,1.6-1.8,1.6-3.2c0-0.8-0.3-1.6-0.9-2.2c-0.6-0.7-1.4-1.3-2.5-1.8
	c-1-0.5-2.2-1-3.5-1.5c-1.3-0.4-2.6-0.9-4-1.5c-1.6-0.6-3.3-1.3-4.9-2.2c-1.6-0.8-3.1-1.8-4.5-3s-2.5-2.6-3.3-4.2
	c-0.9-1.6-1.3-3.5-1.3-5.6c0-2.3,0.5-4.5,1.4-6.5c1-2,2.3-3.7,4.1-5c1.8-1.4,3.9-2.5,6.4-3.2c2.5-0.8,5.3-1.2,8.3-1.2
	c4.1,0,7.6,0.7,10.7,2c3.1,1.3,5.7,2.8,8,4.5l-7.1,9.1c-1.9-1.4-3.8-2.4-5.7-3.2c-1.9-0.8-3.7-1.1-5.6-1.1c-4,0-6,1.3-6,4
	c0,0.8,0.3,1.5,0.9,2.1s1.3,1.1,2.3,1.6s2.1,0.9,3.3,1.4c1.2,0.4,2.5,0.9,3.9,1.4c1.7,0.6,3.4,1.3,5.1,2.1c1.7,0.8,3.2,1.8,4.6,2.9
	c1.4,1.2,2.5,2.6,3.4,4.3c0.9,1.7,1.3,3.7,1.3,6s-0.5,4.5-1.4,6.5s-2.3,3.7-4.2,5.2c-1.9,1.5-4.1,2.6-6.8,3.5
	C363.2,314.3,360.1,314.8,356.5,314.8z"/>
<path class="st1" d="M434.9,254.9c-2.6,0-4.8-0.7-6.5-2.2s-2.6-3.4-2.6-5.7s0.9-4.2,2.6-5.7c1.7-1.4,3.9-2.2,6.5-2.2
	c2.7,0,4.9,0.7,6.6,2.2c1.7,1.4,2.5,3.3,2.5,5.7c0,2.3-0.8,4.2-2.5,5.7C439.8,254.1,437.6,254.9,434.9,254.9z M427.1,313.4v-51.1
	h15.7v51.1H427.1z"/>
<path class="st1" d="M479.7,314.8c-3.7,0-7.2-0.6-10.3-1.8c-3.2-1.2-5.9-2.9-8.3-5.2c-2.4-2.3-4.2-5.1-5.6-8.4s-2-7.1-2-11.4
	s0.7-8,2.2-11.4c1.5-3.3,3.5-6.1,6-8.4c2.5-2.3,5.5-4,8.8-5.2c3.4-1.2,6.8-1.8,10.5-1.8c3.3,0,6.2,0.5,8.7,1.5s4.8,2.3,6.8,3.9
	l-7.4,9.8c-2.5-2-4.9-3-7.2-3c-3.9,0-6.9,1.3-9.1,3.9s-3.3,6.1-3.3,10.6s1.1,8,3.4,10.6c2.2,2.6,5.1,3.9,8.5,3.9
	c1.7,0,3.4-0.4,5-1.1s3.1-1.6,4.5-2.6l6.2,9.9c-2.6,2.2-5.5,3.8-8.6,4.7C485.7,314.3,482.7,314.8,479.7,314.8z"/>
<path class="st1" d="M506.6,313.4v-72.2h15.3v41.4h0.4l16.8-20.3h17.1l-18.6,21l20,30.1h-17l-12-19.9l-6.7,7.3v12.6H506.6z"/>
<path class="st1" d="M586,314.8c-3.8,0-7.3-0.6-10.6-1.8c-3.3-1.2-6.1-2.9-8.6-5.2c-2.4-2.3-4.3-5.1-5.7-8.4s-2-7.1-2-11.3
	c0-4.1,0.7-7.8,2.1-11.2c1.4-3.3,3.3-6.1,5.6-8.4c2.3-2.3,5-4.1,8-5.3c3-1.2,6.1-1.9,9.3-1.9c3.8,0,7.1,0.6,9.9,1.9
	c2.8,1.2,5.2,3,7.1,5.1c1.9,2.2,3.3,4.8,4.2,7.8s1.4,6.2,1.4,9.7c0,1.4-0.1,2.7-0.2,3.9c-0.1,1.2-0.3,2.2-0.4,2.8h-31.8
	c0.7,3.7,2.3,6.4,4.8,8.2s5.5,2.6,9,2.6c3.8,0,7.6-1.1,11.4-3.4l5.2,9.2c-2.7,1.8-5.7,3.2-9,4.2C592.4,314.3,589.2,314.8,586,314.8z
	 M574.2,282.3h19.2c0-2.9-0.7-5.2-2-7c-1.4-1.8-3.6-2.7-6.8-2.7c-2.5,0-4.7,0.8-6.6,2.4C576,276.6,574.8,279,574.2,282.3z"/>
<path class="st1" d="M617.6,313.4v-51.1h12.8l1.1,9h0.4c1.9-3.5,4.2-6.1,7-7.7c2.7-1.6,5.4-2.5,8.1-2.5c1.5,0,2.7,0.1,3.7,0.3
	c1,0.2,1.8,0.4,2.6,0.8l-2.6,13.1c-1-0.3-1.9-0.5-2.8-0.6c-0.9-0.1-1.9-0.2-3-0.2c-2,0-4.1,0.7-6.3,2.1s-4,3.8-5.4,7.3v29.6
	L617.6,313.4L617.6,313.4z"/>
<path class="st1" d="M681.9,314.8c-3.4,0-6.6-0.6-9.7-1.8c-3.1-1.2-5.9-2.9-8.3-5.2c-2.4-2.3-4.3-5.1-5.7-8.4s-2.1-7.1-2.1-11.4
	s0.7-8,2.1-11.4c1.4-3.3,3.3-6.1,5.7-8.4c2.4-2.3,5.2-4,8.3-5.2c3.1-1.2,6.4-1.8,9.7-1.8c3.4,0,6.6,0.6,9.7,1.8
	c3.1,1.2,5.8,2.9,8.2,5.2c2.4,2.3,4.3,5.1,5.7,8.4s2.1,7.1,2.1,11.4s-0.7,8-2.1,11.4c-1.4,3.3-3.3,6.1-5.7,8.4s-5.1,4-8.2,5.2
	C688.5,314.1,685.3,314.8,681.9,314.8z M681.9,302.4c3.2,0,5.6-1.3,7.3-3.9c1.6-2.6,2.5-6.1,2.5-10.6s-0.8-8-2.5-10.6
	c-1.6-2.6-4.1-3.9-7.3-3.9c-3.3,0-5.7,1.3-7.3,3.9s-2.4,6.1-2.4,10.6s0.8,8,2.4,10.6C676.2,301.1,678.7,302.4,681.9,302.4z"/>
<path class="st1" d="M718.5,313.4v-51.1h12.8l1.1,6.5h0.4c2.3-2.1,4.8-3.9,7.5-5.4s5.9-2.3,9.5-2.3c5.8,0,10,1.8,12.6,5.5
	c2.6,3.6,3.9,8.7,3.9,15.1v31.7h-15.7v-29.7c0-3.7-0.5-6.2-1.6-7.6c-1-1.4-2.7-2.1-5-2.1c-2,0-3.7,0.4-5.1,1.3
	c-1.4,0.9-3,2.1-4.7,3.7v34.5L718.5,313.4L718.5,313.4z"/>
<path class="st1" d="M356.5,377.4c-3.5,0-7.1-0.7-10.8-2c-3.7-1.3-6.9-3-9.6-5.1l7.1-9.5c2.4,1.8,4.7,3.1,7,4
	c2.2,0.9,4.5,1.3,6.7,1.3c2.4,0,4.1-0.4,5.1-1.1c1.1-0.8,1.6-1.8,1.6-3.2c0-0.8-0.3-1.6-0.9-2.2c-0.6-0.7-1.4-1.3-2.5-1.8
	c-1-0.5-2.2-1-3.5-1.5c-1.3-0.4-2.6-0.9-4-1.5c-1.6-0.6-3.3-1.3-4.9-2.2c-1.6-0.8-3.1-1.8-4.5-3s-2.5-2.6-3.3-4.2
	c-0.9-1.6-1.3-3.5-1.3-5.6c0-2.3,0.5-4.5,1.4-6.5c1-2,2.3-3.7,4.1-5c1.8-1.4,3.9-2.5,6.4-3.2c2.5-0.8,5.3-1.2,8.3-1.2
	c4.1,0,7.6,0.7,10.7,2s5.7,2.8,8,4.5l-7.1,9.1c-1.9-1.4-3.8-2.4-5.7-3.2c-1.9-0.8-3.7-1.1-5.6-1.1c-4,0-6,1.3-6,4
	c0,0.8,0.3,1.5,0.9,2.1s1.3,1.1,2.3,1.6s2.1,0.9,3.3,1.4c1.2,0.4,2.5,0.9,3.9,1.4c1.7,0.6,3.4,1.3,5.1,2.1c1.7,0.8,3.2,1.8,4.6,2.9
	c1.4,1.2,2.5,2.6,3.4,4.3c0.9,1.7,1.3,3.7,1.3,6s-0.5,4.5-1.4,6.5s-2.3,3.7-4.2,5.2c-1.9,1.5-4.1,2.6-6.8,3.5
	C363.2,377,360.1,377.4,356.5,377.4z"/>
<path class="st1" d="M472.1,377.4c-3.4,0-6.6-0.6-9.7-1.8c-3.1-1.2-5.9-2.9-8.3-5.2c-2.4-2.3-4.3-5.1-5.7-8.4
	c-1.4-3.3-2.1-7.1-2.1-11.4s0.7-8,2.1-11.4c1.4-3.3,3.3-6.1,5.7-8.4c2.4-2.3,5.2-4,8.3-5.2c3.1-1.2,6.4-1.8,9.7-1.8
	c3.4,0,6.6,0.6,9.7,1.8c3.1,1.2,5.8,2.9,8.2,5.2c2.4,2.3,4.3,5.1,5.7,8.4c1.4,3.3,2.1,7.1,2.1,11.4s-0.7,8-2.1,11.4
	c-1.4,3.3-3.3,6.1-5.7,8.4c-2.4,2.3-5.1,4-8.2,5.2C478.7,376.8,475.5,377.4,472.1,377.4z M472.1,365.3c3.2,0,5.6-1.3,7.3-3.9
	c1.6-2.6,2.5-6.1,2.5-10.6s-0.8-8-2.5-10.6c-1.6-2.6-4.1-3.9-7.3-3.9c-3.3,0-5.7,1.3-7.3,3.9c-1.6,2.6-2.4,6.1-2.4,10.6
	s0.8,8,2.4,10.6C466.4,363.9,468.9,365.3,472.1,365.3z"/>
<path class="st1" d="M508.7,395.1v-70h12.8l1.1,5h0.4c2.1-1.8,4.4-3.3,7-4.5s5.3-1.8,8.1-1.8c3.2,0,6.1,0.6,8.7,1.9
	c2.6,1.2,4.7,3,6.5,5.2c1.8,2.3,3.2,5,4.1,8.2c1,3.2,1.4,6.7,1.4,10.7c0,4.4-0.6,8.3-1.9,11.7c-1.2,3.4-2.9,6.3-5,8.6
	c-2.1,2.4-4.5,4.2-7.2,5.4c-2.7,1.2-5.4,1.9-8.3,1.9c-2.3,0-4.5-0.5-6.6-1.4s-4.1-2.2-6-4l0.5,8.1v14.9L508.7,395.1L508.7,395.1z
	 M532.9,365.1c2.7,0,5-1.2,7-3.6c1.9-2.4,2.9-6.2,2.9-11.5c0-9.2-3.1-13.8-9.2-13.8c-3.1,0-6.1,1.5-9.1,4.6v20.9
	c1.4,1.2,2.9,2.1,4.3,2.6C530.2,364.8,531.6,365.1,532.9,365.1z"/>
<path class="st1" d="M432.2,329.4c-2.6-3.6-6.8-5.5-12.6-5.5c-3.6,0-6.8,0.7-9.4,2.2c-2.3,1.3-4.4,2.7-6.2,4.2v-56.1h12.7v-11.8H404
	v-13.6h-13.1l-1.8,13.6L381,263v11.2h7.3V304l0,0v72.2H404v-34.5c1.7-1.6,3.3-2.8,4.7-3.7c1.4-0.9,3.1-1.3,5.1-1.3
	c2.3,0,3.9,0.7,5,2.1c1,1.4,1.6,3.9,1.6,7.6v29.7h15.7v-31.7C436.1,338,434.8,333,432.2,329.4z"/>
<path class="st1" d="M266.1,212h-12.7c-6.3-11.3-14.8-20.2-25.4-26.5c-11.4-6.8-24.6-10.2-39.4-10.3c-0.2,0-0.5,0-0.8,0
	c-7.4,0-33,1.5-52.5,20.5c-9.5,9.2-20.8,26-20.8,53.8c0,18.7,7.3,37.7,18.9,49.5v28.7H91v7.9c0,25.6,7.9,46.2,23.6,61.4
	c22,21.3,50.6,22.9,58.9,22.9c1.2,0.1,2.6,0.1,3.9,0.1c11.2,0,32.7-2.4,50.3-18.3c2.1-1.9,4.1-4,5.9-6.1h64.3c0,0,20,0.4,20-20
	c0-20.4,0-111.7,0-111.7L266.1,212z M191.8,278.8c11.9,5.8,24.2,11.8,34.4,21.1c13,11.9,16.2,26.8,16.2,44.4
	c0,22.2-6.8,39.6-20.1,51.7c-15.9,14.4-35.8,16.3-45,16.3c-1.6,0-2.8-0.1-3.7-0.1c-0.1,0-0.1,0-0.2,0c-6.7,0-33.3-1.3-53.4-20.7
	c-14-13.6-21.2-32.3-21.2-55.7h34.7c0,13.5,3.5,23.8,10.4,30.6c11,10.9,28.2,11.1,29.6,11.1l1.3-0.1l0.8,0.1
	c1.4,0.1,14.8,0.6,23.3-7.3c5.7-5.3,8.6-9,8.6-20.8c0-15.8-10.5-22.6-34.4-34.3c-11.2-5.5-22.9-11.2-32.3-19.6
	c-12.4-11-18.6-29.7-18.6-45.8c0-25,10-40,18.4-48.1c18.6-18,43.7-18.3,47.8-18.2c26.8,0.1,47.9,12.6,59.4,35.4
	c8,15.9,8.6,32.4,8.6,34.1l-36-0.2c-0.5-3.7-0.7-13.3-3.9-19.3c-5.6-10.5-14.6-15.5-28.2-15.5h-0.5c-1.3,0-14.7,0.3-23.1,8.6
	c-5.2,5.1-7.7,12.7-7.7,23.1C157,262.2,169.5,267.8,191.8,278.8z M288.6,383.5c-8.7,0-15.7-7-15.7-15.7c0-8.7,7-15.7,15.7-15.7
	c8.7,0,15.7,7,15.7,15.7C304.3,376.5,297.3,383.5,288.6,383.5z M288.6,345.5c-8.7,0-15.7-7-15.7-15.7c0-8.7,7-15.7,15.7-15.7
	c8.7,0,15.7,7,15.7,15.7C304.3,338.5,297.3,345.5,288.6,345.5z M288.6,307.5c-8.7,0-15.7-7-15.7-15.7c0-8.7,7-15.7,15.7-15.7
	c8.7,0,15.7,7,15.7,15.7C304.3,300.4,297.3,307.5,288.6,307.5z"/>
<path class="st2" d="M263.4,212.7v43.4c0,6.7,5.4,12.1,12.1,12.1h42.8c1.5,0,2.7-1.2,2.7-2.7v-0.7c0-0.7-0.3-1.4-0.8-1.9L268,210.8
	c-0.3-0.3-0.7-0.6-1.2-0.7l0,0C265.1,209.6,263.4,210.9,263.4,212.7z"/>
</svg>
