<svg xmlns="http://www.w3.org/2000/svg" viewBox="0 0 54.17 54.17"><title>большая радость</title><g id="Слой_2" data-name="Слой 2"><g id="Слой_1-2" data-name="Слой 1"><path d="M27.08,0A27.09,27.09,0,1,0,54.17,27.08,27.09,27.09,0,0,0,27.08,0Zm0,48.5A21.42,21.42,0,1,1,48.5,27.08,21.44,21.44,0,0,1,27.08,48.5Z"/><circle cx="19.41" cy="16.78" r="2.97"/><circle cx="35.18" cy="17.41" r="2.97"/><path d="M13,29.92h0a14.16,14.16,0,0,0,28.32,0h0V24.25H13Zm14.17,8.22a8.51,8.51,0,0,1-8.49-8.22h17A8.5,8.5,0,0,1,27.14,38.14Z"/></g></g></svg>