<svg xmlns="http://www.w3.org/2000/svg" viewBox="0 0 54.17 54.17"><title>лицо поехало-2</title><g id="Слой_2" data-name="Слой 2"><g id="Слой_1-2" data-name="Слой 1"><path d="M27.08,0A27.09,27.09,0,1,0,54.17,27.08,27.09,27.09,0,0,0,27.08,0Zm0,48.5a21.22,21.22,0,0,1-9.84-2.42l1.65-1.3A9.69,9.69,0,0,1,29.27,30.05l1.66-5.43A15.37,15.37,0,0,0,14.32,30.8a15.2,15.2,0,0,0-2.43,11.35A21.36,21.36,0,0,1,6.52,33h.12a3,3,0,0,0,0-5.94,2.77,2.77,0,0,0-1,.18c0-.06,0-.12,0-.18A21.42,21.42,0,1,1,27.08,48.5Z"/><circle cx="13.47" cy="20.11" r="2.97"/></g></g></svg>