<svg xmlns="http://www.w3.org/2000/svg" viewBox="0 0 54.17 54.17"><title>смущается</title><g id="Слой_2" data-name="Слой 2"><g id="Слой_1-2" data-name="Слой 1"><path d="M27.08,0A27.09,27.09,0,1,0,54.17,27.08,27.09,27.09,0,0,0,27.08,0Zm0,48.5A21.42,21.42,0,0,1,6.29,32.1a6.29,6.29,0,0,0,2,.32,6.15,6.15,0,1,0,0-12.29,6.43,6.43,0,0,0-1.47.18,21.39,21.39,0,0,1,40.54-.17h-.16a6.15,6.15,0,1,0,0,12.29c.22,0,.43,0,.65,0A21.44,21.44,0,0,1,27.08,48.5Z"/><circle cx="19.41" cy="18.78" r="2.97"/><circle cx="35.18" cy="19.41" r="2.97"/><path d="M27.08,36.79a9.7,9.7,0,0,1-9-6.25l-5.42,1.69a15.36,15.36,0,0,0,28.86.25l-5.42-1.69A9.72,9.72,0,0,1,27.08,36.79Z"/></g></g></svg>