<svg xmlns="http://www.w3.org/2000/svg" viewBox="0 0 54.17 54.17"><title>целующий смайлик влево</title><g id="Слой_2" data-name="Слой 2"><g id="Слой_1-2" data-name="Слой 1"><path d="M27.08,0A27.09,27.09,0,1,0,54.17,27.08,27.09,27.09,0,0,0,27.08,0Zm0,48.5A21.42,21.42,0,1,1,48.5,27.08,21.44,21.44,0,0,1,27.08,48.5Z"/><circle cx="19.41" cy="16.78" r="2.97"/><circle cx="35.18" cy="17.41" r="2.97"/><path d="M24.38,24.21a6.31,6.31,0,0,0-4.23,1.45,4.53,4.53,0,0,0-1.45,3.39,4.3,4.3,0,0,0,1.74,3.57,4.15,4.15,0,0,0-1.74,3.52,4.63,4.63,0,0,0,1.44,3.43,6.17,6.17,0,0,0,4.16,1.48h3.48V38.22H24.45s-2.92.17-2.92-2.08,3.13-1.17,3.13-3.42-3.13-1.42-3.13-3.67,3.13-2,3.13-2h3.12V24.22h-3.4Z"/></g></g></svg>