<svg id="Слой_1" data-name="Слой 1" xmlns="http://www.w3.org/2000/svg" viewBox="0 0 722.687 269.099">
  <defs>
    <style>
      .cls-1 {
        fill: #303030;
      }
    </style>
  </defs>
  <title>logo-bk</title>
  <path class="cls-1" d="M67.816,163.09v269.1H120.29v-26.4c0-5.951,7.368-13.548,13.139-13.548,6.041,0,13.753,7.6,13.753,13.548v11.519c6.636,4.475,15.872,7,25.868,7,6.261,0,26.686-1.261,26.686-17.5,0-7.073-5.044-9.995-28.556-20.507L167,384.43c-26.381-11.722-45.071-22.012-45.071-47.669,0-27.379,20.216-44.387,52.759-44.387,18.773,0,34.429,5.776,46.533,17.168l2.143,2.015V338.6c0,5.951-7.482,13.548-13.344,13.548-5.951,0-13.548-7.6-13.548-13.548V326.5c-6.349-4.312-13.642-6.415-22.191-6.415-13.979,0-23.01,6.145-23.01,15.657,0,7.589,7.018,11.952,31.156,23.015,30.681,14.46,46.657,23.1,46.657,47.034,0,10.4-2.754,19.286-7.914,26.4h32.083V371.957h-8.713c-5.862,0-13.344-7.482-13.344-13.344,0-5.771,7.482-13.139,13.344-13.139h24.917c5.771,0,13.139,7.368,13.139,13.139V432.19h19.483V163.09ZM267.683,328.865c-7.5,0-18.246-10.744-18.246-18.246s10.744-18.246,18.246-18.246,18.246,10.744,18.246,18.246S275.185,328.865,267.683,328.865Z" transform="translate(-67.816 -163.09)"/>
  <g>
    <path class="cls-1" d="M364.418,343.494a10.943,10.943,0,0,1-1.158,5.056,12.447,12.447,0,0,1-3.1,3.9,14.119,14.119,0,0,1-4.459,2.519,15.708,15.708,0,0,1-5.242.886,16.713,16.713,0,0,1-6.876-1.4,11.507,11.507,0,0,1-4.97-4.119v4.731h-3.949V341.555h3.949a8.4,8.4,0,0,0,1.055,4.17,11.492,11.492,0,0,0,2.689,3.251,12.367,12.367,0,0,0,3.762,2.127,12.718,12.718,0,0,0,4.34.766,11.338,11.338,0,0,0,3.642-.562,9.125,9.125,0,0,0,2.927-1.6,7.533,7.533,0,0,0,1.992-2.536,7.654,7.654,0,0,0,.732-3.4,6.918,6.918,0,0,0-.936-3.676,8.65,8.65,0,0,0-2.519-2.621,17.265,17.265,0,0,0-3.558-1.855q-1.975-.766-4.017-1.515-2.417-.851-4.833-1.787a17.967,17.967,0,0,1-4.323-2.366,11.52,11.52,0,0,1-3.1-3.489,10.086,10.086,0,0,1-1.191-5.123,9.983,9.983,0,0,1,1.157-4.851,11.443,11.443,0,0,1,3.03-3.591,13.389,13.389,0,0,1,4.357-2.229,17.231,17.231,0,0,1,5.106-.767,13.51,13.51,0,0,1,5.974,1.328,9.629,9.629,0,0,1,4.272,4.051v-4.63h4.119v12.7h-4.119a8.651,8.651,0,0,0-.834-3.762,9.113,9.113,0,0,0-2.264-3,11.332,11.332,0,0,0-3.268-1.975,10.407,10.407,0,0,0-3.881-.731,14.119,14.119,0,0,0-3.438.408,8.063,8.063,0,0,0-2.859,1.311,6.545,6.545,0,0,0-1.957,2.332,7.38,7.38,0,0,0-.732,3.4,4.994,4.994,0,0,0,.868,2.962,8.265,8.265,0,0,0,2.332,2.161,19.978,19.978,0,0,0,3.387,1.7q1.923.766,3.932,1.549,2.518.886,5,1.975a20.981,20.981,0,0,1,4.459,2.621,12.477,12.477,0,0,1,3.234,3.762A10.886,10.886,0,0,1,364.418,343.494Z" transform="translate(-67.816 -163.09)"/>
    <path class="cls-1" d="M397.2,355.068h-19v-3.982h7.115V327.325H378.2v-3.982h11.847v27.743H397.2Zm-6.332-38.058h-6.331v-6.365h6.331Z" transform="translate(-67.816 -163.09)"/>
    <path class="cls-1" d="M441.656,339.239a19.336,19.336,0,0,1-1.123,6.706,15,15,0,0,1-3.217,5.26,14.6,14.6,0,0,1-5.056,3.421,17.218,17.218,0,0,1-6.638,1.226,13.563,13.563,0,0,1-4.953-.919,14.663,14.663,0,0,1-4.409-2.724v2.859H411.6V310.646h4.663V326.3a16.363,16.363,0,0,1,4.409-2.729,12.831,12.831,0,0,1,4.953-.979,17,17,0,0,1,6.638,1.242,14.807,14.807,0,0,1,5.056,3.438,14.973,14.973,0,0,1,3.217,5.276A19.378,19.378,0,0,1,441.656,339.239Zm-4.731.018a17.189,17.189,0,0,0-.7-5.015,11.168,11.168,0,0,0-2.127-3.994,10.162,10.162,0,0,0-3.558-2.686,11.585,11.585,0,0,0-4.919-.986,12.436,12.436,0,0,0-9.362,4.25v16.929a12.378,12.378,0,0,0,4.375,3.162,13.063,13.063,0,0,0,4.987.951,11.355,11.355,0,0,0,4.885-.985,10.241,10.241,0,0,0,3.523-2.686,11.612,11.612,0,0,0,2.161-3.994A16.179,16.179,0,0,0,436.925,339.257Z" transform="translate(-67.816 -163.09)"/>
    <path class="cls-1" d="M447.92,346.49a8.223,8.223,0,0,1,1.5-5.021,10.412,10.412,0,0,1,3.926-3.2,20.621,20.621,0,0,1,5.575-1.7,38.683,38.683,0,0,1,6.408-.527q1.258,0,2.261.034t1.9.1q.9.069,1.819.17t2.006.238v-2.273a6.674,6.674,0,0,0-1-3.8,7.671,7.671,0,0,0-2.469-2.357,10.469,10.469,0,0,0-3.063-1.221,12.87,12.87,0,0,0-2.723-.356,21.478,21.478,0,0,0-6.536.953,24.973,24.973,0,0,0-5.583,2.554l-2.11-3.507a28.668,28.668,0,0,1,6.417-2.866,25.989,25.989,0,0,1,7.813-1.116,19.774,19.774,0,0,1,5.089.664,14.345,14.345,0,0,1,4.5,2.042,10.1,10.1,0,0,1,3.2,3.626,11.257,11.257,0,0,1,1.2,5.378v20.765h-4.731l.034-5.311a15.187,15.187,0,0,1-2.774,2.689,15.983,15.983,0,0,1-3.251,1.89,19.945,19.945,0,0,1-3.4,1.123,14.45,14.45,0,0,1-3.233.392q-6.3,0-9.531-2.417A8.144,8.144,0,0,1,447.92,346.49Zm12.752,5.378a14.962,14.962,0,0,0,5.251-.867,14.438,14.438,0,0,0,3.959-2.162,10.781,10.781,0,0,0,2.532-2.757,5.191,5.191,0,0,0,.9-2.655v-3a33.252,33.252,0,0,0-4.367-.374q-2.09-.034-3.619-.034a33.52,33.52,0,0,0-4.844.341,15.666,15.666,0,0,0-4.061,1.105,7.71,7.71,0,0,0-2.787,1.992,4.483,4.483,0,0,0-1.053,3.029,4.855,4.855,0,0,0,1.954,3.693Q456.492,351.868,460.672,351.868Z" transform="translate(-67.816 -163.09)"/>
    <path class="cls-1" d="M516.1,354.728a14.32,14.32,0,0,1-1.123,5.821,12.169,12.169,0,0,1-3.149,4.323,14.054,14.054,0,0,1-4.766,2.706,18.814,18.814,0,0,1-6.109.937,15.755,15.755,0,0,1-13.787-6.877l3.269-2.519a11.488,11.488,0,0,0,4.214,3.71,12.935,12.935,0,0,0,6.287,1.5,11.247,11.247,0,0,0,7.63-2.434q2.8-2.435,2.8-7.029v-3.4a13.851,13.851,0,0,1-9.45,3.677q-7.446,0-11.7-4.255t-4.249-11.643a19.366,19.366,0,0,1,1.105-6.654,15.429,15.429,0,0,1,3.161-5.276,14.216,14.216,0,0,1,5.014-3.473,17.062,17.062,0,0,1,6.664-1.242,14.2,14.2,0,0,1,5.014.91,13.725,13.725,0,0,1,4.437,2.729v-2.891H516.1Zm-4.731-23.97a12.264,12.264,0,0,0-4.4-3.2,13.135,13.135,0,0,0-5.047-.986,11.544,11.544,0,0,0-4.91.986,9.814,9.814,0,0,0-3.518,2.686,11.858,11.858,0,0,0-2.124,4.028,16.532,16.532,0,0,0-.73,4.979,12.711,12.711,0,0,0,2.82,8.669q2.821,3.23,8.462,3.229a12.951,12.951,0,0,0,5.047-1,12.291,12.291,0,0,0,4.4-3.247Z" transform="translate(-67.816 -163.09)"/>
    <path class="cls-1" d="M524.034,346.49a8.223,8.223,0,0,1,1.5-5.021,10.412,10.412,0,0,1,3.926-3.2,20.621,20.621,0,0,1,5.575-1.7,38.683,38.683,0,0,1,6.408-.527q1.258,0,2.261.034t1.9.1q.9.069,1.819.17t2.006.238v-2.273a6.674,6.674,0,0,0-1-3.8,7.671,7.671,0,0,0-2.469-2.357,10.469,10.469,0,0,0-3.063-1.221,12.87,12.87,0,0,0-2.723-.356,21.478,21.478,0,0,0-6.536.953,24.973,24.973,0,0,0-5.583,2.554l-2.11-3.507a28.668,28.668,0,0,1,6.417-2.866,25.989,25.989,0,0,1,7.813-1.116,19.774,19.774,0,0,1,5.089.664,14.345,14.345,0,0,1,4.5,2.042,10.1,10.1,0,0,1,3.2,3.626,11.257,11.257,0,0,1,1.2,5.378v20.765h-4.731l.034-5.311a15.187,15.187,0,0,1-2.774,2.689,15.983,15.983,0,0,1-3.251,1.89,19.945,19.945,0,0,1-3.4,1.123,14.45,14.45,0,0,1-3.233.392q-6.3,0-9.531-2.417A8.144,8.144,0,0,1,524.034,346.49Zm12.752,5.378a14.962,14.962,0,0,0,5.251-.867A14.438,14.438,0,0,0,546,348.839a10.781,10.781,0,0,0,2.532-2.757,5.191,5.191,0,0,0,.9-2.655v-3a33.252,33.252,0,0,0-4.367-.374q-2.09-.034-3.619-.034a33.52,33.52,0,0,0-4.844.341,15.666,15.666,0,0,0-4.061,1.105,7.71,7.71,0,0,0-2.787,1.992,4.483,4.483,0,0,0-1.053,3.029,4.855,4.855,0,0,0,1.954,3.693Q532.606,351.868,536.786,351.868Z" transform="translate(-67.816 -163.09)"/>
    <path class="cls-1" d="M594.226,344.958a11.785,11.785,0,0,1-3.932,7.949,12.434,12.434,0,0,1-8.459,2.944,13.728,13.728,0,0,1-5.106-.919,11.5,11.5,0,0,1-3.948-2.554,11.319,11.319,0,0,1-2.536-3.932,13.614,13.614,0,0,1-.9-5.021v-16.1h-7.183v-3.982h7.183v-12.7H574v12.7H587.52v3.982H574v16.1a9.4,9.4,0,0,0,.563,3.268,8.531,8.531,0,0,0,1.565,2.689,7.181,7.181,0,0,0,2.434,1.821,7.682,7.682,0,0,0,3.269.663,8.21,8.21,0,0,0,5.8-2.161,8.5,8.5,0,0,0,2.672-5.6Z" transform="translate(-67.816 -163.09)"/>
    <path class="cls-1" d="M632.76,339.308a18.505,18.505,0,0,1-1.175,6.74,14.581,14.581,0,0,1-3.37,5.191,15.721,15.721,0,0,1-5.259,3.387,18.292,18.292,0,0,1-6.843,1.226,18.092,18.092,0,0,1-6.773-1.226,15.716,15.716,0,0,1-5.26-3.387,14.581,14.581,0,0,1-3.37-5.191,18.526,18.526,0,0,1-1.174-6.74,18.915,18.915,0,0,1,1.174-6.723,14.763,14.763,0,0,1,3.37-5.311,15.674,15.674,0,0,1,5.26-3.438,17.865,17.865,0,0,1,6.773-1.242,18.063,18.063,0,0,1,6.843,1.242,15.679,15.679,0,0,1,5.259,3.438,14.763,14.763,0,0,1,3.37,5.311A18.893,18.893,0,0,1,632.76,339.308Zm-4.664.017a15.138,15.138,0,0,0-.8-5.014,11.668,11.668,0,0,0-2.366-4.028,11.077,11.077,0,0,0-3.795-2.72,13.273,13.273,0,0,0-10.042,0,10.738,10.738,0,0,0-3.762,2.72A11.952,11.952,0,0,0,605,334.311a16.117,16.117,0,0,0,0,10.028,11.231,11.231,0,0,0,2.332,3.96,10.782,10.782,0,0,0,3.762,2.618,13.728,13.728,0,0,0,10.042,0,11.129,11.129,0,0,0,3.795-2.618,10.977,10.977,0,0,0,2.366-3.96A15.144,15.144,0,0,0,628.1,339.324Z" transform="translate(-67.816 -163.09)"/>
    <path class="cls-1" d="M671.056,323.343,657.3,355.068H651.04l-13.821-31.726H642.8l11.369,27.811,11.3-27.811Z" transform="translate(-67.816 -163.09)"/>
    <path class="cls-1" d="M692.16,314.492h-5.991v15.216h-3.847V314.492h-5.991v-3.847H692.16Zm22.262,15.216h-3.778V316.3l-4.391,11.37H703.6l-4.392-11.37v13.412h-3.778V310.646h5.392l4.13,11.165,4.123-11.165h5.35Z" transform="translate(-67.816 -163.09)"/>
    <path class="cls-1" d="M363.874,417.068h-4.731v-2.928a14.646,14.646,0,0,1-4.4,2.758,13.2,13.2,0,0,1-4.913.953,17.722,17.722,0,0,1-6.765-1.226,14.166,14.166,0,0,1-5.048-3.421,15.054,15.054,0,0,1-3.162-5.26,20.857,20.857,0,0,1,0-13.395,15.03,15.03,0,0,1,3.162-5.276,14.359,14.359,0,0,1,5.048-3.438,17.5,17.5,0,0,1,6.765-1.242,13.83,13.83,0,0,1,9.315,3.608V376.628h-6.332v-3.982h11.063Zm-4.731-24.311a12.363,12.363,0,0,0-4.367-3.2,12.883,12.883,0,0,0-5.013-.986,11.546,11.546,0,0,0-4.911.986,10.144,10.144,0,0,0-3.552,2.686,11.615,11.615,0,0,0-2.158,3.994,17.578,17.578,0,0,0,0,10.029,11.615,11.615,0,0,0,2.158,3.994,10.144,10.144,0,0,0,3.552,2.686,11.546,11.546,0,0,0,4.911.985,12.511,12.511,0,0,0,9.38-4.249Z" transform="translate(-67.816 -163.09)"/>
    <path class="cls-1" d="M376.537,402.84a12.346,12.346,0,0,0,3.677,8.033,11.5,11.5,0,0,0,8.238,3,13.5,13.5,0,0,0,6.365-1.463A10.739,10.739,0,0,0,399,408.763l3.269,2.246a16.459,16.459,0,0,1-5.686,5.09,17.192,17.192,0,0,1-8.135,1.753,18,18,0,0,1-6.74-1.226,15.826,15.826,0,0,1-5.294-3.421,15.283,15.283,0,0,1-3.455-5.226,17.835,17.835,0,0,1-1.225-6.74,19.366,19.366,0,0,1,1.105-6.654,15.171,15.171,0,0,1,3.2-5.276,14.507,14.507,0,0,1,5.089-3.473,17.355,17.355,0,0,1,6.706-1.242,17.143,17.143,0,0,1,7.08,1.361,14.051,14.051,0,0,1,5.056,3.762,15.457,15.457,0,0,1,3,5.736,26.367,26.367,0,0,1,.971,7.387ZM399,398.856q-.784-5.19-3.778-7.735a11.018,11.018,0,0,0-7.387-2.545,11.52,11.52,0,0,0-4.152.73,10.324,10.324,0,0,0-3.37,2.086,11.742,11.742,0,0,0-2.451,3.274,12.254,12.254,0,0,0-1.26,4.189Z" transform="translate(-67.816 -163.09)"/>
    <path class="cls-1" d="M440.806,408.3a7.415,7.415,0,0,1-1.4,4.622,10.016,10.016,0,0,1-3.591,2.922,17.626,17.626,0,0,1-4.9,1.546,31.675,31.675,0,0,1-5.294.459,30.463,30.463,0,0,1-8.613-1.26,27.894,27.894,0,0,1-7.421-3.3l2.077-4.017a34.065,34.065,0,0,0,6.91,3.4,21.156,21.156,0,0,0,7.046,1.191q10.519,0,10.519-5.446a2.861,2.861,0,0,0-.868-2.161,6.515,6.515,0,0,0-2.331-1.362,18.9,18.9,0,0,0-3.354-.834q-1.89-.306-3.966-.578-2.654-.375-5.277-.885a20.211,20.211,0,0,1-4.782-1.532,9.293,9.293,0,0,1-3.473-2.724,7.169,7.169,0,0,1-1.311-4.493,7.026,7.026,0,0,1,1.209-4.118,9.738,9.738,0,0,1,3.233-2.894,15.749,15.749,0,0,1,4.749-1.7,28.734,28.734,0,0,1,5.651-.545,26.358,26.358,0,0,1,7.489.979,21.01,21.01,0,0,1,5.957,2.8l-1.872,3.644a17.917,17.917,0,0,0-5.515-2.672,22.834,22.834,0,0,0-6.06-.767,23.214,23.214,0,0,0-3.251.256,13.823,13.823,0,0,0-3.319.885,8.058,8.058,0,0,0-2.57,1.634,3.379,3.379,0,0,0-1.038,2.536,2.754,2.754,0,0,0,.868,2.128,6.8,6.8,0,0,0,2.331,1.327,18.709,18.709,0,0,0,3.354.834q1.89.306,3.966.579,2.587.374,5.225.883a21.3,21.3,0,0,1,4.8,1.5,9.166,9.166,0,0,1,3.489,2.685A7.079,7.079,0,0,1,440.806,408.3Z" transform="translate(-67.816 -163.09)"/>
    <path class="cls-1" d="M473.314,417.068h-19v-3.982h7.115V389.325h-7.115v-3.982h11.847v27.743h7.148Zm-6.332-38.058h-6.331v-6.365h6.331Z" transform="translate(-67.816 -163.09)"/>
    <path class="cls-1" d="M516.1,416.728a14.32,14.32,0,0,1-1.123,5.821,12.169,12.169,0,0,1-3.149,4.323,14.054,14.054,0,0,1-4.766,2.706,18.814,18.814,0,0,1-6.109.937,15.755,15.755,0,0,1-13.787-6.877l3.269-2.519a11.488,11.488,0,0,0,4.214,3.71,12.935,12.935,0,0,0,6.287,1.5,11.247,11.247,0,0,0,7.63-2.434q2.8-2.435,2.8-7.029v-3.4a13.851,13.851,0,0,1-9.45,3.677q-7.446,0-11.7-4.255t-4.249-11.643a19.366,19.366,0,0,1,1.105-6.654,15.429,15.429,0,0,1,3.161-5.276,14.216,14.216,0,0,1,5.014-3.473,17.062,17.062,0,0,1,6.664-1.242,14.2,14.2,0,0,1,5.014.91,13.725,13.725,0,0,1,4.437,2.729v-2.891H516.1Zm-4.731-23.97a12.264,12.264,0,0,0-4.4-3.2,13.135,13.135,0,0,0-5.047-.986,11.544,11.544,0,0,0-4.91.986,9.814,9.814,0,0,0-3.518,2.686,11.858,11.858,0,0,0-2.124,4.028,16.532,16.532,0,0,0-.73,4.979,12.711,12.711,0,0,0,2.82,8.669q2.821,3.23,8.462,3.229a12.951,12.951,0,0,0,5.047-1,12.291,12.291,0,0,0,4.4-3.247Z" transform="translate(-67.816 -163.09)"/>
    <path class="cls-1" d="M554.16,417.068h-4.731v-19.55a10.476,10.476,0,0,0-1.835-6.6q-1.835-2.345-5.946-2.347a9.275,9.275,0,0,0-4.672,1.19,11.332,11.332,0,0,0-3.552,3.18A14.713,14.713,0,0,0,531.2,397.5a18.654,18.654,0,0,0-.765,5.354v14.212h-4.663V385.343h4.663v7.966q3.371-8.714,12.017-8.715,11.71,0,11.71,12.9Z" transform="translate(-67.816 -163.09)"/>
    <path class="cls-1" d="M630.274,416.728a14.32,14.32,0,0,1-1.123,5.821A12.169,12.169,0,0,1,626,426.872a14.054,14.054,0,0,1-4.766,2.706,18.814,18.814,0,0,1-6.109.937,15.755,15.755,0,0,1-13.787-6.877l3.269-2.519a11.488,11.488,0,0,0,4.214,3.71,12.935,12.935,0,0,0,6.287,1.5,11.247,11.247,0,0,0,7.63-2.434q2.8-2.435,2.8-7.029v-3.4a13.851,13.851,0,0,1-9.45,3.677q-7.446,0-11.7-4.255t-4.249-11.643a19.366,19.366,0,0,1,1.105-6.654,15.429,15.429,0,0,1,3.161-5.276,14.216,14.216,0,0,1,5.014-3.473,17.062,17.062,0,0,1,6.664-1.242,14.2,14.2,0,0,1,5.014.91,13.725,13.725,0,0,1,4.437,2.729v-2.891h4.731Zm-4.731-23.97a12.264,12.264,0,0,0-4.4-3.2,13.135,13.135,0,0,0-5.047-.986,11.544,11.544,0,0,0-4.91.986,9.814,9.814,0,0,0-3.518,2.686,11.858,11.858,0,0,0-2.124,4.028,16.532,16.532,0,0,0-.73,4.979,12.711,12.711,0,0,0,2.82,8.669q2.821,3.23,8.462,3.229a12.951,12.951,0,0,0,5.047-1,12.291,12.291,0,0,0,4.4-3.247Z" transform="translate(-67.816 -163.09)"/>
    <path class="cls-1" d="M668.264,389.836a13.267,13.267,0,0,0-5.991-1.26,10.493,10.493,0,0,0-5.105,1.225,12.255,12.255,0,0,0-3.812,3.212,14.578,14.578,0,0,0-2.4,4.556,17,17,0,0,0-.834,5.285v10.232H657.3v3.982H638.274v-3.982h7.183V389.325h-7.183v-3.982H650.12v7.966q3.2-8.714,12.152-8.715a25.091,25.091,0,0,1,4.2.309A11.5,11.5,0,0,1,669.8,386Z" transform="translate(-67.816 -163.09)"/>
    <path class="cls-1" d="M708.874,401.308a18.505,18.505,0,0,1-1.175,6.74,14.581,14.581,0,0,1-3.37,5.191,15.721,15.721,0,0,1-5.259,3.387,18.292,18.292,0,0,1-6.843,1.226,18.092,18.092,0,0,1-6.773-1.226,15.716,15.716,0,0,1-5.26-3.387,14.581,14.581,0,0,1-3.37-5.191,18.526,18.526,0,0,1-1.174-6.74,18.915,18.915,0,0,1,1.174-6.723,14.763,14.763,0,0,1,3.37-5.311,15.674,15.674,0,0,1,5.26-3.438,17.865,17.865,0,0,1,6.773-1.242,18.063,18.063,0,0,1,6.843,1.242,15.679,15.679,0,0,1,5.259,3.438,14.763,14.763,0,0,1,3.37,5.311A18.893,18.893,0,0,1,708.874,401.308Zm-4.664.017a15.138,15.138,0,0,0-.8-5.014,11.668,11.668,0,0,0-2.366-4.028,11.077,11.077,0,0,0-3.795-2.72,13.273,13.273,0,0,0-10.042,0,10.738,10.738,0,0,0-3.762,2.72,11.952,11.952,0,0,0-2.332,4.028,16.117,16.117,0,0,0,0,10.028,11.231,11.231,0,0,0,2.332,3.96,10.782,10.782,0,0,0,3.762,2.618,13.728,13.728,0,0,0,10.042,0,11.129,11.129,0,0,0,3.795-2.618,10.977,10.977,0,0,0,2.366-3.96A15.144,15.144,0,0,0,704.21,401.324Z" transform="translate(-67.816 -163.09)"/>
    <path class="cls-1" d="M716.057,385.343h4.663V404.95a10.353,10.353,0,0,0,1.853,6.587q1.852,2.332,5.964,2.331a9.165,9.165,0,0,0,4.654-1.191,11.387,11.387,0,0,0,3.534-3.183,14.745,14.745,0,0,0,2.226-4.562,18.73,18.73,0,0,0,.765-5.361V385.343h4.731v31.726h-4.731l.034-7.932q-3.337,8.714-11.982,8.715-11.71,0-11.71-12.9Z" transform="translate(-67.816 -163.09)"/>
    <path class="cls-1" d="M784.171,401.239a18.756,18.756,0,0,1-1.157,6.74,15.474,15.474,0,0,1-3.251,5.226,14.607,14.607,0,0,1-5.055,3.421,17.225,17.225,0,0,1-6.638,1.226,13.38,13.38,0,0,1-4.885-.919,14.663,14.663,0,0,1-4.409-2.724v15.557h-4.663V385.343h4.663V388.3a14.031,14.031,0,0,1,9.294-3.708,17.446,17.446,0,0,1,6.638,1.208,14.207,14.207,0,0,1,5.055,3.438,15.749,15.749,0,0,1,3.251,5.311A18.87,18.87,0,0,1,784.171,401.239Zm-4.663.018a16.512,16.512,0,0,0-.732-4.98,11.269,11.269,0,0,0-2.2-4.028,10.511,10.511,0,0,0-3.592-2.686,11.58,11.58,0,0,0-4.918-.986,12.425,12.425,0,0,0-4.953.986,12.9,12.9,0,0,0-4.341,3.2v17a12.472,12.472,0,0,0,4.341,3.162,12.806,12.806,0,0,0,4.953.951,11.58,11.58,0,0,0,4.918-.985,10.511,10.511,0,0,0,3.592-2.686,11.316,11.316,0,0,0,2.2-3.994A16.179,16.179,0,0,0,779.508,401.257Z" transform="translate(-67.816 -163.09)"/>
  </g>
</svg>
