<!-- Generator: Adobe Illustrator 21.0.0, SVG Export Plug-In  -->
<svg version="1.1"
	 xmlns="http://www.w3.org/2000/svg" xmlns:xlink="http://www.w3.org/1999/xlink" xmlns:a="http://ns.adobe.com/AdobeSVGViewerExtensions/3.0/"
	 x="0px" y="0px" width="77.573px" height="67.722px" viewBox="0 0 77.573 67.722"
	 style="enable-background:new 0 0 77.573 67.722;" xml:space="preserve">
<style type="text/css">
	.st0{fill:#010002;}
	.st1{fill:#EF2400;}
	.st2{fill:#FFFFFF;}
</style>
<defs>
</defs>
<g>
	<path class="st0" d="M37.514,39.381c0.191,0.552,0.632,0.628,0,0.839l-1.676,0.839l-1.675-1.678
		c-0.224-0.656,0.052-1.078,0.839-1.677l1.677,0.836C36.881,38.798,37.449,39.188,37.514,39.381z M35.838,32.668
		c-0.505-0.247-1.112-0.187-1.675,0c-0.297,0.097-0.494,0.54-0.841,0.839v2.517l2.516-0.839c0.693-0.787,1.005-1.187,0.841-1.677
		C36.545,33.118,36.348,32.924,35.838,32.668z M42.738,36.05l-0.189-0.024c-0.097,0.032-0.815-0.57-1.674-0.839
		c-0.417-0.142-0.421,0.164-0.842,0c-0.593,0.203-0.693,0.699-0.841,1.678c-0.142,0.983-0.327,2.371,0,3.355
		c0.09,0.267,0.509,0.505,0.841,0.839l0.842,0.838h0.836c1.092-0.477,1.509-1.62,1.677-1.677c0.395-0.236,0.701-0.938,0.84-1.679
		c0.134-0.744,0.231-0.985,0-1.677C43.962,36.077,43.265,35.876,42.738,36.05z M42.549,43.575v1.679
		c0.418,0.372,0.859,0.716,1.679,0.84l1.676-0.84l-0.84-2.517L42.549,43.575z M52.616,43.575c-1.122-1.241-1.718-1.389-3.358-0.841
		h-0.838c-0.777,0.688-1.136,1.219-1.676,2.517c-0.527,1.239-1.075,2.642-0.84,3.355c0.021,0.057,0.685,0.787,1.676,1.678
		c1.048,0.864,1.55,1.389,1.677,1.679l3.356-0.843c0.361-0.117,1.763-3.102,1.676-3.352C53.616,45.746,53.299,44.347,52.616,43.575z
		 M50.125,59.677c-0.009-0.057-0.057-0.166-0.029-0.166c-0.628-0.895-3.319-3.014-3.355-3.357c-0.04-0.361-0.79-1.665-1.679-2.514
		c-0.38-0.601-0.416-1.061-0.84-1.677c-0.42-0.611-1.208-1.865-1.676-2.516l-3.162-1.991c-0.46-0.244-3.102-0.155-6.782-4.047
		l-0.123-2.352c-0.492-0.603-1.521-2.048-1.673-2.517c-0.971-2.888-0.327-5.25-0.841-9.225l-1.864-1.249l-2.232-0.429
		c-0.753-0.316-2.588-0.117-2.588-0.117L7.44,59.722h42.694h0.063L50.125,59.677z"/>
</g>
<path class="st1" d="M76.868,60.318L42.105,2.375c-1.922-3.203-6.579-3.158-8.433,0.084C25.736,16.332,8.483,46.521,0.637,60.438
	c-1.837,3.258,0.519,7.284,4.259,7.284c16.093,0,51.424,0,67.785,0C76.481,67.722,78.823,63.576,76.868,60.318z M11.081,59.722
	c6.808-12.058,20.649-36.277,26.973-47.333l28.398,47.333H11.081z"/>
<path class="st2" d="M4.897,64.887c-1.065,0-1.597-0.712-1.775-1.018c-0.178-0.306-0.536-1.114-0.015-2.039
	c8-14.189,25.761-45.262,33.025-57.963c0.533-0.932,1.422-1.032,1.78-1.032c0.349,0,1.221,0.097,1.762,0.999l34.763,57.942
	c0.558,0.93,0.204,1.759,0.027,2.072c-0.177,0.313-0.705,1.039-1.783,1.039H4.897z M35.593,10.981
	C29.79,21.127,15.545,46.05,8.612,58.328l-2.388,4.229h65.234L37.995,6.781L35.593,10.981z"/>
</svg>