<!-- Generator: Adobe Illustrator 21.0.0, SVG Export Plug-In  -->
<svg version="1.1"
	 xmlns="http://www.w3.org/2000/svg" xmlns:xlink="http://www.w3.org/1999/xlink" xmlns:a="http://ns.adobe.com/AdobeSVGViewerExtensions/3.0/"
	 x="0px" y="0px" width="569.419px" height="98.136px" viewBox="0 0 569.419 98.136"
	 style="enable-background:new 0 0 569.419 98.136;" xml:space="preserve">
<style type="text/css">
	.st0{fill:url(#SVGID_1_);}
	.st1{fill:url(#SVGID_2_);}
</style>
<defs>
</defs>
<linearGradient id="SVGID_1_" gradientUnits="userSpaceOnUse" x1="132.1368" y1="11.8734" x2="155.7498" y2="11.8734">
	<stop  offset="0" style="stop-color:#FBBA00"/>
	<stop  offset="0.9953" style="stop-color:#F39200"/>
</linearGradient>
<path class="st0" d="M132.137,11.806C132.137,5.233,137.37,0,143.943,0c6.574,0,11.807,5.233,11.807,11.806
	c0,6.574-5.233,11.941-11.807,11.941C137.37,23.747,132.137,18.38,132.137,11.806z"/>
<g>
	<path d="M27.238,29.831c0-3.871,3.043-6.637,9.955-6.637c9.126,0,19.22,3.179,26.963,9.54l12.997-17.006
		c-9.817-8.434-22.675-12.86-37.47-12.86c-23.645,0-36.78,13.827-36.78,29.313c0,35.535,52.266,25.442,52.266,38.025
		c0,4.424-4.978,7.604-13.135,7.604c-12.582,0-22.814-5.531-29.451-12.168L0,83.479c9.263,8.849,22.26,14.657,40.927,14.657
		c24.751,0,38.44-12.307,38.44-30.835C79.366,33.011,27.238,41.583,27.238,29.831z"/>
	<rect x="133.297" y="29.693" width="21.292" height="66.784"/>
	<path d="M199.944,46.837c5.669,0,9.955,2.49,12.583,6.361l13.826-12.86c-4.009-5.944-12.997-12.305-27.376-12.305
		c-20.879,0-36.504,14.103-36.504,34.982c0,21.017,15.625,35.121,36.504,35.121c14.379,0,23.367-6.499,27.376-12.307l-13.826-12.997
		c-2.628,3.733-6.914,6.499-12.583,6.499c-8.849,0-15.625-6.222-15.625-16.316S191.095,46.837,199.944,46.837z"/>
	<polygon points="300.193,29.693 274.476,29.693 254.149,56.378 254.149,4.251 232.857,4.251 232.857,96.476 254.149,96.476 
		254.149,80.438 260.51,72.832 275.166,96.476 301.438,96.476 275.581,60.112 	"/>
	<path d="M336.285,28.033c-20.877,0-35.535,15.625-35.535,34.982c0,21.709,15.901,35.121,36.502,35.121
		c10.232,0,21.294-2.905,27.931-8.849l-8.987-13.275c-3.733,3.595-11.89,5.669-16.592,5.669c-9.679,0-15.487-5.669-16.731-11.89
		h47.564v-4.563C370.439,42.551,356.059,28.033,336.285,28.033z M322.597,55.963c0.83-4.839,4.425-11.477,13.688-11.477
		c9.819,0,13.275,6.776,13.828,11.477H322.597z"/>
	<path d="M399.064,37.85v-8.157h-21.292v66.784h21.292V53.89c2.765-3.733,10.094-6.084,15.625-6.084
		c2.213,0,4.009,0.276,5.254,0.553V27.895C411.924,27.895,403.49,32.458,399.064,37.85z"/>
	<path d="M458.385,28.033c-22.675,0-36.365,16.178-36.365,34.982c0,18.806,13.689,35.121,36.365,35.121
		c22.952,0,36.504-16.316,36.504-35.121C494.889,44.211,481.338,28.033,458.385,28.033z M458.385,79.331
		c-9.264,0-14.38-7.329-14.38-16.316c0-8.849,5.116-16.178,14.38-16.178c9.402,0,14.657,7.329,14.657,16.178
		C473.043,72.002,467.788,79.331,458.385,79.331z"/>
	<path d="M547.297,28.033c-11.2,0-19.081,5.116-23.092,9.817v-8.157h-21.292v66.784h21.292V53.336
		c2.49-3.041,6.638-6.499,12.997-6.499c6.637,0,10.924,2.905,10.924,11.062v38.577h21.292V49.187
		C569.419,36.882,562.507,28.033,547.297,28.033z"/>
	<path d="M112.279,72.556V48.22h13.55V29.693h-13.55V11.44H91.123v18.253H80.061V48.22h11.062v30.281
		c0,12.531,6.977,17.695,19.871,17.951v0.025h16.339V77.573h-9.917C114.175,77.183,112.279,76.138,112.279,72.556z"/>
</g>
</svg>