<!-- Generator: Adobe Illustrator 21.0.0, SVG Export Plug-In  -->
<svg version="1.1"
	 xmlns="http://www.w3.org/2000/svg" xmlns:xlink="http://www.w3.org/1999/xlink" xmlns:a="http://ns.adobe.com/AdobeSVGViewerExtensions/3.0/"
	 x="0px" y="0px" width="395.317px" height="68.636px" viewBox="0 0 395.317 68.636"
	 style="overflow:scroll;enable-background:new 0 0 395.317 68.636;" xml:space="preserve">
<style type="text/css">
	.st0{fill:#FFFFFF;}
	.st1{fill:#FFD00A;}
</style>
<defs>
</defs>
<path class="st0" d="M0,58.46l8.735-12.383c4.607,4.607,11.711,8.447,20.446,8.447c5.663,0,9.119-2.208,9.119-5.279
	c0-8.735-36.285-1.729-36.285-26.398c0-10.751,9.119-20.351,25.534-20.351c10.271,0,19.198,3.072,26.014,8.928L44.54,23.23
	c-5.375-4.416-12.383-6.623-18.719-6.623c-4.799,0-6.911,1.92-6.911,4.607c0,8.159,36.189,2.208,36.189,26.014
	c0,12.863-9.503,21.407-26.687,21.407C15.454,68.636,6.431,64.604,0,58.46z"/>
<path class="st0" d="M63.262,55.004V33.981h-7.68V21.119h7.68V8.447h14.688v12.672h9.407v12.862h-9.407v16.896
	c0,2.688,1.535,4.703,4.127,4.703c1.632,0,3.264-0.576,3.744-1.151l2.88,11.135c-1.824,1.728-5.472,3.072-10.943,3.072
	C68.35,68.636,63.262,63.932,63.262,55.004z"/>
<path class="st1" d="M91.484,8.447C91.484,3.744,95.229,0,99.932,0c4.704,0,8.448,3.744,8.448,8.447
	c0,4.704-3.744,8.544-8.448,8.544C95.229,16.991,91.484,13.151,91.484,8.447z"/>
<rect x="92.541" y="21.119" class="st0" width="14.782" height="46.364"/>
<path class="st0" d="M112.796,44.253c0-14.495,10.848-24.286,25.343-24.286c9.982,0,16.223,4.416,19.006,8.543l-9.599,8.928
	c-1.824-2.688-4.8-4.416-8.735-4.416c-6.144,0-10.848,4.224-10.848,11.231s4.704,11.327,10.848,11.327
	c3.936,0,6.911-1.92,8.735-4.512l9.599,9.023c-2.783,4.032-9.023,8.544-19.006,8.544C123.644,68.636,112.796,58.844,112.796,44.253z
	"/>
<path class="st0" d="M191.033,67.483l-10.175-16.415l-4.416,5.28v11.135H161.66V3.456h14.782v36.189l14.111-18.526h17.854
	l-17.087,21.118l17.951,25.246H191.033z"/>
<path class="st0" d="M208.795,44.253c0-13.438,10.176-24.286,24.67-24.286c13.728,0,23.711,10.079,23.711,25.822v3.168h-33.021
	c0.863,4.319,4.896,8.255,11.615,8.255c3.264,0,8.927-1.439,11.519-3.936l6.239,9.216c-4.607,4.127-12.287,6.144-19.391,6.144
	C219.834,68.636,208.795,59.324,208.795,44.253z M233.465,31.39c-6.431,0-8.927,4.608-9.503,7.968h19.103
	C242.681,36.094,240.281,31.39,233.465,31.39z"/>
<path class="st0" d="M262.267,67.483V21.119h14.782v5.663c3.072-3.743,8.928-6.911,14.495-6.911v14.207
	c-0.864-0.192-2.111-0.384-3.647-0.384c-3.84,0-8.928,1.632-10.848,4.224v29.565H262.267z"/>
<path class="st0" d="M292.986,44.253c0-13.055,9.504-24.286,25.246-24.286c15.935,0,25.343,11.231,25.343,24.286
	c0,13.056-9.408,24.383-25.343,24.383C302.49,68.636,292.986,57.309,292.986,44.253z M328.408,44.253
	c0-6.144-3.648-11.231-10.176-11.231c-6.432,0-9.983,5.088-9.983,11.231c0,6.239,3.552,11.327,9.983,11.327
	C324.76,55.58,328.408,50.492,328.408,44.253z"/>
<path class="st0" d="M380.535,67.483V40.701c0-5.663-2.977-7.68-7.584-7.68c-4.415,0-7.295,2.4-9.023,4.512v29.95h-14.782V21.119
	h14.782v5.663c2.784-3.264,8.256-6.815,16.031-6.815c10.56,0,15.358,6.144,15.358,14.687v32.83H380.535z"/>
</svg>