<svg xmlns="http://www.w3.org/2000/svg" xmlns:xlink="http://www.w3.org/1999/xlink" viewBox="0 0 569.42 98.14"><defs><style>.cls-1{fill:url(#Безымянный_градиент_22);}.cls-2{fill:#fff;}</style><linearGradient id="Безымянный_градиент_22" x1="132.14" y1="11.87" x2="155.75" y2="11.87" gradientUnits="userSpaceOnUse"><stop offset="0" stop-color="#fab900"/><stop offset="1" stop-color="#f29100"/></linearGradient></defs><title>Ресурс 1</title><g id="Слой_2" data-name="Слой 2"><g id="Слой_1-2" data-name="Слой 1"><path class="cls-1" d="M132.14,11.81a11.81,11.81,0,0,1,23.61,0,11.81,11.81,0,1,1-23.61,0Z"/><path class="cls-2" d="M27.24,29.83c0-3.87,3-6.64,10-6.64a43.41,43.41,0,0,1,27,9.54l13-17C67.34,7.29,54.48,2.87,39.68,2.87,16,2.87,2.9,16.7,2.9,32.18c0,35.53,52.27,25.44,52.27,38,0,4.42-5,7.6-13.14,7.6A41.67,41.67,0,0,1,12.58,65.64L0,83.48c9.26,8.85,22.26,14.66,40.93,14.66,24.75,0,38.44-12.31,38.44-30.84C79.37,33,27.24,41.58,27.24,29.83Z"/><rect class="cls-2" x="133.3" y="29.69" width="21.29" height="66.78"/><path class="cls-2" d="M199.94,46.84a14.6,14.6,0,0,1,12.58,6.36l13.83-12.86c-4-5.94-13-12.31-27.38-12.31-20.88,0-36.5,14.1-36.5,35S178.1,98.14,199,98.14c14.38,0,23.37-6.5,27.38-12.31l-13.83-13a15,15,0,0,1-12.58,6.5c-8.85,0-15.63-6.22-15.63-16.32S191.09,46.84,199.94,46.84Z"/><polygon class="cls-2" points="300.19 29.69 274.48 29.69 254.15 56.38 254.15 4.25 232.86 4.25 232.86 96.48 254.15 96.48 254.15 80.44 260.51 72.83 275.17 96.48 301.44 96.48 275.58 60.11 300.19 29.69"/><path class="cls-2" d="M336.29,28c-20.88,0-35.53,15.63-35.53,35,0,21.71,15.9,35.12,36.5,35.12,10.23,0,21.29-2.9,27.93-8.85L356.2,76c-3.73,3.6-11.89,5.67-16.59,5.67-9.68,0-15.49-5.67-16.73-11.89h47.56V65.23C370.44,42.55,356.06,28,336.29,28ZM322.6,56c.83-4.84,4.43-11.48,13.69-11.48,9.82,0,13.27,6.78,13.83,11.48Z"/><path class="cls-2" d="M399.06,37.85V29.69H377.77V96.48h21.29V53.89c2.77-3.73,10.09-6.08,15.63-6.08a24.33,24.33,0,0,1,5.25.55V27.89C411.92,27.89,403.49,32.46,399.06,37.85Z"/><path class="cls-2" d="M458.39,28C435.71,28,422,44.21,422,63s13.69,35.12,36.36,35.12c23,0,36.5-16.32,36.5-35.12S481.34,28,458.39,28Zm0,51.3C449.12,79.33,444,72,444,63s5.12-16.18,14.38-16.18S473,54.17,473,63,467.79,79.33,458.39,79.33Z"/><path class="cls-2" d="M547.3,28c-11.2,0-19.08,5.12-23.09,9.82V29.69H502.91V96.48h21.29V53.34a16.48,16.48,0,0,1,13-6.5c6.64,0,10.92,2.9,10.92,11.06V96.48h21.29V49.19C569.42,36.88,562.51,28,547.3,28Z"/><path class="cls-2" d="M112.28,72.56V48.22h13.55V29.69H112.28V11.44H91.12V29.69H80.06V48.22H91.12V78.5c0,12.53,7,17.69,19.87,18v0h16.34V77.57h-9.92C114.18,77.18,112.28,76.14,112.28,72.56Z"/></g></g></svg>