<svg xmlns="http://www.w3.org/2000/svg" viewBox="0 0 841.88 90.87"><defs><style>.cls-1{fill:#fff;}</style></defs><title>Ресурс 2</title><g id="Слой_2" data-name="Слой 2"><g id="Слой_1-2" data-name="Слой 1"><path class="cls-1" d="M13.06,29.05a24.25,24.25,0,0,0,6.31,6.58q3.73,2.65,10.25,6.58,7.19,4.35,11.06,7.2a26.38,26.38,0,0,1,6.65,7.26A19.32,19.32,0,0,1,50.12,67.2,21.66,21.66,0,0,1,37.29,87.36a34.47,34.47,0,0,1-15.14,3.05A39.24,39.24,0,0,1,3,85.67a1.94,1.94,0,0,1-.88-1,7.51,7.51,0,0,1-.34-1.63L0,64.62c-.09-.36.11-.59.61-.68s.79,0,.88.41A38.92,38.92,0,0,0,9.59,81.19q5.91,7.06,15.68,7.06a17.82,17.82,0,0,0,11.47-3.73q4.68-3.73,4.68-11.88A20,20,0,0,0,38.71,62a26.1,26.1,0,0,0-6.58-7.4,117.4,117.4,0,0,0-10.52-6.86A117.75,117.75,0,0,1,11.36,41,24.91,24.91,0,0,1,5,33.81,19.57,19.57,0,0,1,2.47,23.62,18.85,18.85,0,0,1,6.06,12a21.8,21.8,0,0,1,9.37-7.2A32,32,0,0,1,27.72,2.44,41.23,41.23,0,0,1,43.6,5.7q2,.68,2,2.31l1,15.61c0,.36-.23.54-.68.54a.73.73,0,0,1-.81-.54,27.83,27.83,0,0,0-5.84-13.1q-4.75-6-13.71-6-7.6,0-11.34,4.41a16.33,16.33,0,0,0-3.73,10.93A16.45,16.45,0,0,0,13.06,29.05Z"/><path class="cls-1" d="M84.53,10.73q-4.28,4.35-6.18,14.8c0,.18-.25.27-.75.27s-.75-.09-.75-.27q.54-4.89,1.22-12.76T78.76,1c0-.45.25-.68.75-.68s.75.23.75.68q0,3,7.33,3,11.54.41,27.29.41,8,0,17-.27l9.23-.14a28.5,28.5,0,0,0,7.26-.68A4.16,4.16,0,0,0,151.4.54a.73.73,0,0,1,.81-.54c.45,0,.68.18.68.54q-.41,3.94-.81,11.95t-.41,13c0,.18-.27.27-.82.27s-.81-.09-.81-.27q-.41-10.59-4.34-14.87t-13-4.28a48,48,0,0,0-8.69.54,4.86,4.86,0,0,0-3.53,2.31q-1,1.77-1,6V77.79a14.48,14.48,0,0,0,1,6.11,5.19,5.19,0,0,0,3.67,2.58,38.67,38.67,0,0,0,8.55.68q.41,0,.41.81t-.41.81q-4.48,0-7.2-.14l-10.59-.14-10.18.14q-2.72.14-7.47.14c-.18,0-.27-.27-.27-.81s.09-.81.27-.81a38.68,38.68,0,0,0,8.55-.68,5.38,5.38,0,0,0,3.73-2.65,13.69,13.69,0,0,0,1-6V14.93q0-4.21-1-5.91a4.75,4.75,0,0,0-3.53-2.17,54.64,54.64,0,0,0-8.69-.48Q88.81,6.38,84.53,10.73Z"/><path class="cls-1" d="M199.86,83.83a4.56,4.56,0,0,0,3.19,2.65,30,30,0,0,0,7.54.68q.41,0,.41.81t-.41.81q-4.07,0-6.52-.14l-9.64-.14-9.37.14q-2.44.14-6.65.14-.41,0-.41-.81t.41-.81a30,30,0,0,0,7.54-.68,4.78,4.78,0,0,0,3.26-2.65,15.59,15.59,0,0,0,.88-6V14.93a15.05,15.05,0,0,0-.88-6,5,5,0,0,0-3.26-2.65,27.48,27.48,0,0,0-7.54-.75q-.41,0-.41-.81t.41-.81l6.65.14q5.7.27,9.37.27,4.07,0,9.77-.27l6.38-.14q.41,0,.41.81t-.41.81a24.61,24.61,0,0,0-7.4.81,5.19,5.19,0,0,0-3.26,2.78,15.55,15.55,0,0,0-.88,6V77.79A16.77,16.77,0,0,0,199.86,83.83Z"/><path class="cls-1" d="M301.55,3.67a46.65,46.65,0,0,1,11.68,4.21c.63.36,1,.68,1.09,1a19.37,19.37,0,0,1,.41,2L316.35,27c0,.27-.25.43-.75.48s-.79-.07-.88-.34q-6.25-22.67-28-22.67a39.43,39.43,0,0,0-20.09,5,34,34,0,0,0-13.44,14.32,47,47,0,0,0-4.75,21.65,45.43,45.43,0,0,0,5.23,21.65,40.77,40.77,0,0,0,14.12,15.54,35.14,35.14,0,0,0,19.35,5.7q11.13,0,18.06-5.43T315.8,66.39c0-.18.23-.27.68-.27.63,0,1,.14,1,.41l-1.36,14.93a5.39,5.39,0,0,1-.41,2,4,4,0,0,1-1.09,1,61,61,0,0,1-13.24,4.75,66.65,66.65,0,0,1-14.19,1.36,55.86,55.86,0,0,1-25.46-5.63A42.21,42.21,0,0,1,244.26,69.1,43.75,43.75,0,0,1,238,45.75a40.63,40.63,0,0,1,6.38-22.6A42.58,42.58,0,0,1,262,7.87a57,57,0,0,1,25.18-5.43A71.68,71.68,0,0,1,301.55,3.67Z"/><path class="cls-1" d="M426.18,88q0,.81-.41.81H410.56q-1.09,0-3.87.07t-7.81-6.92q-5-7-9.64-12.83L368.48,42.9,364,47.25V77.79a16.77,16.77,0,0,0,.81,6A4.56,4.56,0,0,0,368,86.48a30,30,0,0,0,7.54.68q.41,0,.41.81t-.41.81q-4.07,0-6.52-.14l-9.5-.14-9.23.14q-2.44.14-6.79.14c-.18,0-.27-.27-.27-.81s.09-.81.27-.81a30,30,0,0,0,7.53-.68,4.78,4.78,0,0,0,3.26-2.65,15.59,15.59,0,0,0,.88-6V14.93a16.17,16.17,0,0,0-.82-6,4.79,4.79,0,0,0-3.19-2.65,27.46,27.46,0,0,0-7.53-.75c-.18,0-.27-.27-.27-.81s.09-.81.27-.81l6.79.14q5.7.27,9.1.27,3.94,0,9.64-.27l6.38-.14q.41,0,.41.81t-.41.81a24.61,24.61,0,0,0-7.4.81,5.19,5.19,0,0,0-3.26,2.78,15.55,15.55,0,0,0-.88,6V43.85l29.05-28.92q4.48-4.48,4.48-6.65,0-2.71-8-2.72c-.18,0-.27-.27-.27-.81s.09-.81.27-.81l5.84.14q5.43.27,9.91.27t9.37-.27l5-.14q.41,0,.41.81t-.41.81A32.45,32.45,0,0,0,407.85,8a35,35,0,0,0-11.68,7.74l-21.45,21,19.55,25A213.66,213.66,0,0,0,409.41,80q5.22,5.29,8.08,6.25a27.61,27.61,0,0,0,8.28,1Q426.18,87.16,426.18,88Z"/><path class="cls-1" d="M506.28,68.29a2,2,0,0,1,.75.14c.22.09.34.23.34.41a126.71,126.71,0,0,0-1.22,17.92,2.15,2.15,0,0,1-.47,1.56,2.37,2.37,0,0,1-1.7.48H447.08c-.18,0-.27-.27-.27-.81s.09-.81.27-.81a30,30,0,0,0,7.54-.68,4.78,4.78,0,0,0,3.26-2.65,15.59,15.59,0,0,0,.88-6V14.93a15.05,15.05,0,0,0-.88-6,5,5,0,0,0-3.26-2.65,27.48,27.48,0,0,0-7.54-.75c-.18,0-.27-.27-.27-.81s.09-.81.27-.81h54.58a1.08,1.08,0,0,1,1.22,1.22l.27,16.7c0,.27-.23.43-.68.48s-.73-.07-.81-.34q-.41-7.19-4.34-11.2a14,14,0,0,0-10.45-4h-8.28a24,24,0,0,0-7,.75,5,5,0,0,0-3.12,2.58,13.17,13.17,0,0,0-.88,5.5V43.17h16.56q6.52,0,9.3-2.17t2.78-7.33q0-.27.81-.27t.81.27l-.14,11q0,3.94.14,6l.14,6.52c0,.18-.27.27-.81.27s-.81-.09-.81-.27q0-6-2.92-8.55T483.74,46H467.58V77.25a14.1,14.1,0,0,0,.81,5.57,4.57,4.57,0,0,0,3,2.44,24.61,24.61,0,0,0,6.79.68H489a14.29,14.29,0,0,0,10.86-4.62q4.34-4.61,5.84-12.76Q505.73,68.29,506.28,68.29Z"/><path class="cls-1" d="M621.4,88c0,.54-.09.81-.27.81H603.62q-3.4,0-12.76-11.27a349.76,349.76,0,0,1-22.27-31,35,35,0,0,1-7.6.81q-.81,0-6.11-.41V77.79a16.69,16.69,0,0,0,.81,6.11,4.58,4.58,0,0,0,3.19,2.58,30,30,0,0,0,7.54.68q.41,0,.41.81t-.41.81q-4.21,0-6.65-.14l-9.37-.14-9.23.14q-2.44.14-6.92.14c-.18,0-.27-.27-.27-.81s.09-.81.27-.81a30.89,30.89,0,0,0,7.6-.68,4.8,4.8,0,0,0,3.33-2.65,15.59,15.59,0,0,0,.88-6V14.93a16.19,16.19,0,0,0-.81-6A4.79,4.79,0,0,0,542,6.31a27.48,27.48,0,0,0-7.54-.75q-.41,0-.41-.81t.41-.81l6.65.14q5.7.27,9.23.27,3,0,5.57-.14t4.34-.27q5-.41,9.1-.41,10.72,0,16.56,4.89a16.14,16.14,0,0,1,5.84,13,22,22,0,0,1-4.28,13.24A29.45,29.45,0,0,1,576.19,44q11.4,16.43,19.21,25.73t13.85,13.37a21.22,21.22,0,0,0,11.88,4.07C621.31,87.16,621.4,87.43,621.4,88ZM562.89,44.26q10.59,0,15.14-4.62t4.55-14.25q0-10.59-4.68-15.21T564.25,5.57q-5.3,0-7.33,1.9t-2,7.74V43.72A51.31,51.31,0,0,0,562.89,44.26Z"/><path class="cls-1" d="M654.87,84.51a40.44,40.44,0,0,1-15.21-16,46.35,46.35,0,0,1-5.36-22.06q0-14,7.06-24a44.23,44.23,0,0,1,18.13-15,54.18,54.18,0,0,1,22.6-5,42.25,42.25,0,0,1,22.67,6,41,41,0,0,1,15,16,44.49,44.49,0,0,1,5.23,21,41.61,41.61,0,0,1-6.52,22.67A46.82,46.82,0,0,1,701,84.44a48.59,48.59,0,0,1-23.69,6A42.82,42.82,0,0,1,654.87,84.51Zm43.85-1.43a30.82,30.82,0,0,0,11.68-13.17q4.28-8.69,4.28-20.64a51.84,51.84,0,0,0-4.75-22.67,37,37,0,0,0-13.37-15.48,36.35,36.35,0,0,0-20.16-5.57q-14.94,0-23.35,9.64t-8.42,26.47A55.9,55.9,0,0,0,649.37,65a39.8,39.8,0,0,0,13.31,16.56,32.82,32.82,0,0,0,19.41,6A31.48,31.48,0,0,0,698.72,83.09Z"/><path class="cls-1" d="M841.88,4.75q0,.82-.41.81-5.7,0-8.28,3.12t-2.58,10.18V90.42q0,.27-.68.41a1,1,0,0,1-1-.14L766.53,15.07l-1.22-1.36V74q0,7.06,2.51,10.11t8.08,3.05q.41,0,.41.81t-.41.81q-3.4,0-5.16-.14L764,88.52l-6.92.14q-1.9.14-5.57.14c-.18,0-.27-.27-.27-.81s.09-.81.27-.81q5.84,0,8.28-3.05T762.19,74V10.45q-5.3-4.89-10.73-4.89-.41,0-.41-.81t.41-.81l5,.14q1.63.14,4.48.14t4.89-.14q1.9-.13,3-.14a2.15,2.15,0,0,1,1.56.48A16.72,16.72,0,0,1,772,6.52Q773.59,9,775.22,11l52.27,64.22V18.87q0-7.06-2.38-10.18t-7.94-3.12c-.18,0-.27-.27-.27-.81s.09-.81.27-.81l5.29.14q4.07.27,6.65.27t6.79-.27l5.57-.14Q841.88,3.94,841.88,4.75Z"/></g></g></svg>