<svg xmlns="http://www.w3.org/2000/svg" viewBox="0 0 823.26 78.4"><title>Ресурс 3</title><g id="Слой_2" data-name="Слой 2"><g id="Слой_1-2" data-name="Слой 1"><path d="M15.52,32.48c-3.93-3-14.1-9-8.88-14.61,3.25-3.48,9.33-5.4,13.85-6.42,3.64-.82,8.69-.88,12,1.3s3.18,6.17,3.16,9.72c0,3.16,4.88,3.16,4.9,0,0-5.73-.6-10.5-5.54-14S22.72,5.67,17.37,7.24c-7.15,2.1-20.19,7.15-16.83,17,1.78,5.22,7.65,8.79,11.81,12,6.16,4.71,12.39,9.27,17.5,15.16,2.38,2.74,5.76,6.77,6.76,10.41,1.81,6.56-7.24,4.63-10.42,3.77-6.19-1.68-12-4.05-18.15-5.45a2.23,2.23,0,0,0-1.83-.84q-1.43,0-2.85,0c-2.68,0-3.45,4.42-.65,4.81,6.91,1,13.2,3.29,19.77,5.46,4.65,1.54,11.74,3.3,16.4.75C48.7,64.9,35,49.38,30.67,45,26,40.33,20.74,36.47,15.52,32.48Z"/><path d="M147,6.33a2.14,2.14,0,0,0-3.1-.65c-11.67-.88-23.49-.37-35.19-.37-6,0-12,.13-18,.14S79,4.55,73.12,4.35l-.23,0h-.32c-3.16,0-3.15,4.82,0,4.9,6.05.16,12.06,1.13,18.14,1.12,2.88,0,5.77,0,8.65-.07-.1,20.4-2.58,40.8-4.41,61.07-.29,3.15,4.59,3.11,4.9,0a13.86,13.86,0,0,1,.9-2.63,2.09,2.09,0,0,0-.45-2.23c1.77-18.68,3.88-37.46,4-56.24,1.47,0,2.94,0,4.41,0,12.31,0,24.75-.59,37,.5C148.32,10.95,148.68,7.65,147,6.33Z"/><path d="M184.18,7.27C184,27.8,179.63,48,178.89,68.55a2.53,2.53,0,0,0-.2,3.91,4,4,0,0,1,.09.74c.1,3.15,4.88,3.17,4.9,0,.15-22.13,5.18-43.84,5.39-65.92C189.11,4.11,184.21,4.11,184.18,7.27Z"/><path d="M292.2,55.4c-2.12-.77-3.37,1.42-2.84,3.13a5.12,5.12,0,0,0-.59.41q-1.62.5-3.19,1.12a59.48,59.48,0,0,1-6.2,2,34.9,34.9,0,0,1-13.67.44c-9.42-1.31-19.15-5.23-20.82-15.73-1.47-9.24,2-19,8.34-25.77s17.64-15.53,26.29-8.61c2.44,2,5.93-1.49,3.47-3.47-5.11-4.09-9.77-5.09-16.15-3-6,2-11.5,6.18-16,10.57-9,8.77-14.27,23.9-9.44,36.05C246,64.28,261.43,68.66,273,68a53,53,0,0,0,18.75-5C295.52,61.3,296.84,57.09,292.2,55.4Z"/><path d="M382.9,63.12c-3.43-1.71-7.48-2.54-11.13-3.66a69.75,69.75,0,0,1-15.38-6.81c-6.68-4-12.38-9.06-19.31-12.37a145.48,145.48,0,0,1,19.09-15.87c5.54-3.76,11.22-7.43,16.5-11.57a2.72,2.72,0,0,0,1.09-.57A16.25,16.25,0,0,0,376,10.13c2.2-2.31-1.09-5.5-3.47-3.47-.63.54-1.28,1.07-1.94,1.6a2.53,2.53,0,0,0-.48.4c-6.09,4.85-12.81,9-19.2,13.41a137.06,137.06,0,0,0-17.08,14.53,205.35,205.35,0,0,1,.86-23.44c.27-3.14-4.63-3.12-4.9,0a176.3,176.3,0,0,0-.62,29c.39,4.92.64,9.76.62,14.7,0,2.46.31,5.26.36,8a2.38,2.38,0,0,0-.86,1.76c-.11,2.09-.32,4,1.1,5.64a2.47,2.47,0,0,0,4.1-1.08c.81-3.64.19-7.65.2-11.36,0-5.18,0-10.3-.44-15.46,7.71,3.35,13.95,9.36,21.28,13.5a71.23,71.23,0,0,0,12.33,5.63c3,1,6.43,1.63,9.56,2.68,0,0,0,.08,0,.13l.05.3a2.48,2.48,0,0,0,3,1.71,12.93,12.93,0,0,0,2.41-.92A2.47,2.47,0,0,0,382.9,63.12Z"/><path d="M488.22,60.81c-.88-1.65-2.8-1.31-3.79-.13A235.2,235.2,0,0,0,434.63,66a2.48,2.48,0,0,0-.76-2.07c-.4-7.2-.83-14.41-1.19-21.62a2.47,2.47,0,0,0,1.05.21c8.35-.06,16.66-.85,25-1.36,7.74-.47,15.46-.66,23.18-1a2.12,2.12,0,0,0,2.58.09l.83-.53c1.94-1.24,1.31-4.7-1.24-4.57-8.45.44-16.89.62-25.35,1.13s-16.64,1.29-25,1.36a2.38,2.38,0,0,0-1.26.35c-.34-7.29-.59-14.59-.67-21.88,18-2.16,36.23-1.56,54.35-1.52H487c3.15,0,3.16-4.9,0-4.9-18.59,0-37.18-.57-55.67,1.58-1.06-1.54-3.89-1.31-4.41.69-1.47.72-1.27,2.8-.06,3.87.17,17.16,1.33,34.35,2.25,51.47-2.11,1-1.36,4.25.79,4.6a2.48,2.48,0,0,0,4.11-.75,228.75,228.75,0,0,1,53.49-5.57C490.21,65.67,491,61.26,488.22,60.81Z"/><path d="M621.32,70.45a2.58,2.58,0,0,0-1.8-2.17c-4.2-3.91-7.77-8.09-12.55-11.45-5.25-3.7-10-8.19-16-10.66A37.22,37.22,0,0,0,583.22,44c2.48-.78,4.91-1.65,7.21-2.56,4-1.57,8.88-4.6,11.61-8,2.31-2.85,1.93-7.2,1.11-10.56-2.1-8.59-9.52-17.52-17.57-21.1-4.26-1.9-8.18-1.76-12.67-1A85.62,85.62,0,0,0,562,2.82c-3.2,1-6,2.74-9.36,2.76-.42-2.76-4.89-2.64-4.86.38.14,12.35,2,24.26.56,36.61-.66,5.81-.53,11.66-1.07,17.48-.47,5-1.41,9.92-.21,14.91.54,2.23,3.32,2.18,4.48.59a5.78,5.78,0,0,0,1.14-4.07,2.33,2.33,0,0,0-1.38-2.09c0-3.72.76-7.51,1-11.18.22-3.1.34-6.19.5-9.28,1.78-.28,3.45-.87,5.23-1.15a58.12,58.12,0,0,0,6.12-.07c1.15.07,2.3.15,3.45.19,6.87.21,13.74,0,20.32,2.32,6,2.18,10.76,6.68,15.89,10.36s8.75,8.11,13.37,12.22c1.4,1.24,4.47.55,4.18-1.73ZM565.13,7.09c4.62-1.11,10.45-2.7,15.16-1.85,8.38,1.51,16.56,11.21,18.19,19.36.35,1.77.67,4-.18,5.58-1,1.85-4,3.46-5.74,4.59-4.14,2.67-9.29,3.79-13.93,5.37s-9.67,2-14.52,2.65c-.91,0-1.83-.06-2.75-.07a18.34,18.34,0,0,0-3.5.35,23,23,0,0,0-4.67.51c.08-.95.18-1.89.29-2.84,1.23-10.13-.19-20.14-.67-30.24C557.2,10.43,560.91,8.1,565.13,7.09Z"/><path d="M721.35,6.67c.79-1.31.55-3.16-1.35-3.43a5.5,5.5,0,0,0-3,.15,2.88,2.88,0,0,0-1.51,1.3c-4.23-1.63-8.56-3.6-13-4.29A60.89,60.89,0,0,0,690.38.21c-7.32.36-12.87,2.7-17.41,8.56a39.22,39.22,0,0,0-5.84,9.54c-.7,1.81-1,3.7-1.61,5.54-.94,2.88-2.65,5.35-4,8-3.29,6.63-3.73,14-2.41,21.23,2.76,15.13,18.94,24.49,33.38,25.26,8.26.44,17.06-3.67,23.84-8.08a34.46,34.46,0,0,0,13.49-15.9c3.32-7.87,4.9-15.4,3.69-23.95S726.52,13.77,721.35,6.67Zm3.14,47.73c-3.73,7.59-10.56,12.36-18.13,15.73-5.38,2.39-10.78,4-16.71,3-4.5-.75-10-2-13.59-4.86-2.74-2.19-5.88-4.44-8.21-7.08-3.2-3.64-4.18-8.73-4.36-13.43s.14-9,2.28-13.4c1.63-3.37,3.64-6.38,4.69-10,2.48-8.55,7.69-17.8,17.35-19a62.75,62.75,0,0,1,12.32-.26c5.32.41,10.58,3.1,15.55,4.91a2,2,0,0,0,1.92-.17C722.13,16,727.23,23,728.56,30.24,730.07,38.57,728.17,46.9,724.48,54.4Z"/><path d="M820.2,5.41l-.84.17a2.39,2.39,0,0,0-1.71,1.71c-1.79,9.64-2.17,19.41-2.29,29.25a131.37,131.37,0,0,0,.4,16.26c.3,2.63.35,5.18.43,7.81-2.3-2.86-4.41-5.95-6.73-8.64C805.24,47,803.13,41.67,800.14,36c-2.9-5.46-5.11-11.52-8.65-16.62-2.87-4.14-7.25-6.86-10.5-10.67,0-.51.06-1,.08-1.53a2.68,2.68,0,0,0,0-.45V6.11c0-3.16-4.83-3.15-4.9,0-.13,5.72-1.1,11.33-1,17.07.14,5.57.77,11,1.43,16.56s0,11.2.62,16.76c.56,4.93.37,10,1.21,14.89.3,1.72,3,2.48,4.1,1.08a20.29,20.29,0,0,0,2.19-3.21A2.47,2.47,0,0,0,783,65.66a33.48,33.48,0,0,0,0-4c-.22-2.32-.79-4.59-.95-6.91-.37-5.64,0-11.18-.69-16.83a147,147,0,0,1-1.22-15.65,67.46,67.46,0,0,1,.31-7c3,2.89,6.26,5.5,8.41,9.27,3.14,5.49,6.06,11.49,8.63,17.27A53.74,53.74,0,0,0,806,55.43c4,4.59,7.21,10.28,12,14.07,1.28,1,3.75.93,4.1-1.08a9.53,9.53,0,0,0-.32-4.54c-.71-2.85-.4-5.51-.69-8.41a141,141,0,0,1-.84-16.21c.13-9.83.29-19.7,1.94-29.36C824.35,8.75,823,4.83,820.2,5.41Z"/></g></g></svg>