<svg xmlns="http://www.w3.org/2000/svg" viewBox="0 0 832.98 97.52"><defs><style>.cls-1{fill:#fff;}</style></defs><title>Ресурс 3</title><g id="Слой_2" data-name="Слой 2"><g id="Слой_1-2" data-name="Слой 1"><path class="cls-1" d="M71.11,29.54H59.22q-2-19-23.14-19-10.07,0-15.56,4.05A13.32,13.32,0,0,0,15,26a12.28,12.28,0,0,0,.78,4.58,8.41,8.41,0,0,0,2.68,3.46,36.82,36.82,0,0,0,3.6,2.55,22.53,22.53,0,0,0,5.36,2.09q3.66,1,5.88,1.5t6.93,1.5q5.75,1.18,9.54,2.16a66.14,66.14,0,0,1,9,3.2,31.25,31.25,0,0,1,8.3,4.9,23.76,23.76,0,0,1,5.36,7.13,21.7,21.7,0,0,1,2.29,10.07q0,9.8-5.49,16.41A29,29,0,0,1,56,94.78a54.77,54.77,0,0,1-17.39,2.61q-17.52,0-28-8.3T0,64.58H11.9q.39,11.9,8,17.32t19.74,5.42a31.75,31.75,0,0,0,16.34-4q6.8-4,6.8-13a13.23,13.23,0,0,0-1.83-7.12,13.39,13.39,0,0,0-5.75-4.84,53.16,53.16,0,0,0-7.84-3.07Q43.4,54.12,37,52.68a8.13,8.13,0,0,1-1.31-.26q-14.38-3.27-18.82-5.23Q3.27,41.31,3.27,26.93,3.27,13.6,13.14,7T37,.39q15.29,0,24.45,7.32T71.11,29.54Z"/><path class="cls-1" d="M168.24,2.22V12.94H137V95.3H124.71V12.94H93.47V2.22Z"/><path class="cls-1" d="M205.24,2.22V95.3H192.95V2.22Z"/><path class="cls-1" d="M318.84,60.13q-1.57,17.65-12.22,27.52t-28,9.87q-19.87,0-31.5-13.14T235.43,48.89q0-20.92,11.7-34.84T279.49.13a43.84,43.84,0,0,1,26,8q11.24,8,12.55,22.09H305.76a23.58,23.58,0,0,0-9.15-14.31q-7.06-5.16-17.39-5.16-15.56,0-23.46,11t-7.91,27.06q0,17.78,8.37,28t22.88,10.2q11.89,0,19-6.86t8.5-19.94Z"/><path class="cls-1" d="M423.68,2.22,384.46,39.61,425.25,95.3H409.56L375.83,48,360.41,62.62V95.3H348.12V2.22h12.29V48.37L407.6,2.22Z"/><path class="cls-1" d="M513.48,2.22V12.94H461.32V42.09h48.76V52.42H461.32V84.58h52.81V95.3H449V2.22Z"/><path class="cls-1" d="M542.63,2.22h40.92Q614.8,2.22,614.8,28a24.21,24.21,0,0,1-4.38,14.31,21,21,0,0,1-11.57,8.3,21.88,21.88,0,0,1,7.58,3,11.12,11.12,0,0,1,4.18,5.49,31.09,31.09,0,0,1,1.7,6.27q.39,2.75.65,8.11,0,.52.13,2.55c.08,1.35.13,2.27.13,2.75s.07,1.33.2,2.55.24,2.14.33,2.75.22,1.44.39,2.48a12.53,12.53,0,0,0,.65,2.55q.39,1,.92,2.22a13,13,0,0,0,1.18,2.22,11.48,11.48,0,0,0,1.44,1.76H604.21A11.33,11.33,0,0,1,602.7,92a24.61,24.61,0,0,1-.85-4.64q-.26-2.68-.39-4.31t-.26-4.77q-.13-3.14-.13-3.53-.65-11.89-4.9-15.82T579.37,55H554.92V95.3H542.63Zm12.29,10.46V45.23h23.14q4.31,0,7.26-.26a40.09,40.09,0,0,0,6.47-1.18,15.29,15.29,0,0,0,5.69-2.61,12.81,12.81,0,0,0,3.59-4.84,18.12,18.12,0,0,0,1.44-7.58q0-9.41-5.69-12.75t-15.49-3.33Z"/><path class="cls-1" d="M685.13,0q21.18,0,32.94,13.27T729.83,48q0,21.57-11.63,35.56t-32.94,14a46.57,46.57,0,0,1-19.48-3.92,36.84,36.84,0,0,1-14.05-10.85,49.66,49.66,0,0,1-8.24-15.82,63.38,63.38,0,0,1-2.81-19.22q0-21.83,12.09-34.77T685.13,0Zm0,10.72q-15.56,0-23.86,10.92t-8.3,27q0,17.52,8.82,27.91t23.6,10.39q14.64,0,23.4-10.46t8.76-27.84q0-17.26-8.82-27.58T685.13,10.72Z"/><path class="cls-1" d="M758.46,2.22h13.46l49.15,75.56V2.22H833V95.3H819.12L770.23,20.65V95.3H758.46Z"/></g></g></svg>